<svg width="198" height="183" viewBox="0 0 198 183" fill="none" xmlns="http://www.w3.org/2000/svg">
<g id="Eyeball flattened">
<g id="Vector">
<path d="M155.679 129.156C153.002 128.101 149.791 127.81 146.977 127.789C144.671 127.771 141.959 126.954 139.666 126.519C136.354 125.891 132.991 126.292 129.675 125.72C127.401 125.328 125.055 124.185 122.944 123.246C120.525 122.17 117.842 121.697 115.383 120.603C112.372 119.263 109.23 118.269 106.186 117.076M106.186 117.076C103.785 116.135 101.444 115.071 99.2755 113.617C98.6494 113.197 98.0297 112.755 97.4183 112.293M106.186 117.076C107.439 117.869 108.699 118.657 110.071 119.302C115.148 121.684 120.429 123.74 125.769 125.424C126.731 125.728 128.031 126.444 126.301 126.262C124.351 126.057 121.944 126.01 120.099 125.226C116.812 123.828 113.565 122.319 110.302 120.867C105.453 118.709 101.218 116.012 97.1322 113.068M106.186 117.076C104.718 116.146 103.26 115.21 101.644 114.491C100.175 113.837 98.7989 113.072 97.4183 112.293M97.4183 112.293C97.3611 112.25 97.304 112.206 97.2469 112.163M97.4183 112.293C97.3623 112.261 97.3062 112.23 97.2502 112.198M97.2469 112.163C94.1204 109.777 91.2152 106.898 88.7743 103.997C84.4121 98.8115 78.9245 94.2708 72.87 90.9506C68.1371 88.3551 63.8173 85.1033 58.8732 82.84C57.8957 82.3926 54.9444 81.0921 55.9266 81.529C57.9248 82.4181 59.8213 83.4681 61.6186 84.7025C64.232 86.4976 66.3101 89.0146 68.771 90.99C70.3958 92.2941 72.1159 93.307 73.531 94.7705C78.0831 99.4783 83.8066 102.938 88.996 106.92C90.1329 107.792 91.2573 108.661 92.3791 109.519M97.2469 112.163C97.2481 112.174 97.2492 112.186 97.2502 112.198M97.2469 112.163C97.2167 111.851 97.1489 111.561 97.1142 111.433C96.306 108.444 94.1263 105.606 91.9571 103.289C87.635 98.6733 81.4215 94.0448 75.6956 91.0458C75.211 90.792 73.3773 89.9905 74.3004 89.223C74.9399 88.6913 75.8185 88.4233 76.8237 88.3329M92.3791 109.519C93.9593 110.728 95.5343 111.917 97.1322 113.068M92.3791 109.519C93.3746 110.113 94.4082 110.621 95.4733 111.204C96.072 111.532 96.6618 111.866 97.2502 112.198M92.3791 109.519C91.9922 109.288 91.611 109.044 91.2359 108.778C90.284 108.102 89.3798 107.311 88.3287 106.783C87.6628 106.449 85.6233 105.066 86.7442 106.279C88.1603 107.811 89.8889 109.246 91.554 110.542C92.857 111.556 94.9568 113.045 96.65 113.27C96.8872 113.302 97.0391 113.217 97.1322 113.068M97.1322 113.068C97.264 112.858 97.2781 112.518 97.2502 112.198M76.8237 88.3329C79.9918 88.0479 84.4179 89.5275 86.5826 90.0799C87.6481 90.3518 88.4467 90.5695 89.1193 90.7634M76.8237 88.3329C79.1791 88.9988 81.5835 89.6194 83.1003 89.973C84.4664 90.2914 85.8439 90.5575 87.2257 90.7667C87.805 90.8544 88.4747 91.113 88.9704 90.8618C89.0343 90.8294 89.0835 90.7966 89.1193 90.7634M76.8237 88.3329C74.6714 87.7244 72.56 87.0781 71.2039 86.5632C68.083 85.3783 68.3731 84.8818 71.7254 85.1926C72.3226 85.2479 72.9745 85.3217 73.6674 85.4102M89.1193 90.7634C90.8385 91.259 91.7347 91.5988 94.1597 92.2891C95.0511 92.5429 92.436 91.595 91.5587 91.2922C90.7436 91.0108 89.9278 90.7321 89.1113 90.4557M89.1193 90.7634C89.2267 90.6637 89.213 90.5606 89.1113 90.4557M89.1113 90.4557C83.9798 88.7182 78.8224 87.0689 73.6674 85.4102M89.1113 90.4557C88.6414 89.9715 86.2933 89.4512 85.3099 89.0729C82.8136 88.1125 78.9092 86.7278 75.9654 85.7336M73.6674 85.4102C71.671 84.7679 69.675 84.1241 67.6809 83.4732C67.0207 83.2577 66.3449 83.0792 65.7096 82.7965C65.5557 82.728 66.0442 82.7791 66.2076 82.8178C68.6046 83.3847 72.1845 84.4885 74.3301 85.1895C74.8239 85.3508 75.3753 85.5344 75.9654 85.7336M73.6674 85.4102C74.3936 85.5031 75.1648 85.6122 75.9654 85.7336M75.9654 85.7336C80.9079 86.4832 86.9681 87.7005 90.4477 88.4339C90.5595 88.4575 90.6706 88.481 90.7811 88.5044M90.7811 88.5044C95.1592 89.4315 98.547 90.234 102.128 91.1042M90.7811 88.5044C92.9786 89.378 95.0023 90.0968 96.188 90.5071C97.572 90.986 99.203 91.5391 100.95 92.0829M90.7811 88.5044C87.5715 87.2283 83.9913 85.6219 82.1109 84.1638C81.6621 83.8158 81.065 82.8598 81.5558 82.6347C82.7536 82.0854 84.2847 82.4293 85.6587 82.5369C91.0218 82.9568 97.0544 84.3101 102.223 85.6196C104.838 86.2822 107.403 86.9721 109.936 87.7411M102.128 91.1042C102.758 91.2574 103.395 91.4127 104.044 91.5711M102.128 91.1042C101.466 91.4242 101.094 91.7529 100.95 92.0829M102.128 91.1042C102.205 91.0672 102.285 91.0303 102.369 90.9935C102.441 90.9622 102.514 90.9316 102.587 90.9016M104.044 91.5711C105.261 91.8682 106.521 92.1764 107.868 92.5025M104.044 91.5711C104.89 92.3992 106.384 92.7452 107.968 92.8714M104.044 91.5711C104.036 91.5634 104.028 91.5555 104.02 91.5477C103.913 91.4405 103.833 91.3322 103.775 91.2237M107.868 92.5025C108.261 92.5976 108.661 92.6943 109.07 92.7927C109.28 92.8432 109.476 92.8905 109.66 92.9345M107.868 92.5025C107.897 92.625 107.93 92.748 107.968 92.8714M107.868 92.5025C107.854 92.4419 107.84 92.3814 107.828 92.3211M109.66 92.9345C111.785 93.4442 112.121 93.5105 110.048 92.9328M109.66 92.9345C109.79 92.9347 109.92 92.9341 110.048 92.9328M109.66 92.9345C109.101 92.9333 108.529 92.9161 107.968 92.8714M110.048 92.9328C109.693 92.8339 109.268 92.7161 108.768 92.5783C108.498 92.5037 108.181 92.4172 107.828 92.3211M110.048 92.9328C111.248 92.9206 112.356 92.8457 113.113 92.8287C113.134 92.8283 113.156 92.8278 113.179 92.8273M107.828 92.3211C106.743 92.0256 105.309 91.6388 103.775 91.2237M107.828 92.3211C107.649 91.4357 107.698 90.5834 107.969 89.8393M103.775 91.2237C103.384 91.1178 102.987 91.0101 102.587 90.9016M103.775 91.2237C103.648 90.9834 103.634 90.7415 103.7 90.5059M102.587 90.9016C99.5204 90.07 96.3125 89.1911 94.8147 88.7342C92.9575 88.1675 91.0855 87.6187 89.2951 86.8593C88.4928 86.519 87.166 86.2645 87.0941 85.4594C87.0333 84.7789 88.3959 84.8836 89.1144 84.8357C92.916 84.5822 97.6213 85.3771 101.258 86.252C103.447 86.7785 105.879 87.4469 108.229 88.3202M102.587 90.9016C102.948 90.7528 103.32 90.6213 103.7 90.5059M108.229 88.3202C108.417 88.3901 108.605 88.4612 108.792 88.5338M108.229 88.3202C107.621 88.2687 107.006 88.3053 106.415 88.4462C105.735 88.6083 103.984 89.5 103.7 90.5059M108.229 88.3202C108.459 88.3396 108.688 88.3717 108.914 88.4154M108.792 88.5338C109.924 88.9732 111.03 89.4619 112.074 90.0071M108.792 88.5338C108.422 88.9081 108.148 89.3503 107.969 89.8393M108.792 88.5338C108.832 88.4935 108.872 88.4541 108.914 88.4154M112.074 90.0071C112.086 90.0136 112.098 90.02 112.111 90.0265M112.074 90.0071C111.275 89.2278 110.134 88.6514 108.914 88.4154M112.074 90.0071C112.08 90.0128 112.085 90.0185 112.091 90.0242M112.111 90.0265C112.851 90.4145 113.559 90.831 114.222 91.2787C114.259 91.3035 114.295 91.3284 114.332 91.3531M112.111 90.0265C112.104 90.0257 112.098 90.025 112.091 90.0242M112.111 90.0265C113.042 90.1351 113.974 90.2831 114.896 90.46M114.332 91.3531C115.056 91.85 115.634 92.3293 116.009 92.7621M114.332 91.3531C114.138 91.8297 114.098 92.3185 114.184 92.8087M114.332 91.3531C114.455 91.0495 114.64 90.7508 114.896 90.46M116.009 92.7621C116.818 93.6952 116.683 94.4124 115.03 94.6236M116.009 92.7621C117.531 92.7135 119.446 92.6259 121.398 92.4582M116.009 92.7621C115.305 92.7846 114.685 92.7988 114.184 92.8087M115.03 94.6236C114.628 94.675 114.136 94.6965 113.545 94.6838C113.146 94.6752 112.733 94.653 112.31 94.6186M115.03 94.6236C115.488 95.2413 116.097 95.8383 116.796 96.391M115.03 94.6236C114.59 94.0306 114.29 93.4186 114.184 92.8087M112.31 94.6186C111.097 94.5201 109.796 94.3213 108.46 94.0556M112.31 94.6186C112.819 94.0172 113.093 93.4121 113.179 92.8273M112.31 94.6186C112.258 94.68 112.204 94.7414 112.147 94.8027C111.576 95.4174 110.899 95.9051 110.152 96.2871M108.46 94.0556C105.965 93.5595 103.348 92.8299 100.95 92.0829M108.46 94.0556C108.48 94.0944 108.501 94.1332 108.523 94.1719C108.958 94.9602 109.511 95.6662 110.152 96.2871M108.46 94.0556C108.251 93.6617 108.087 93.2649 107.968 92.8714M100.95 92.0829C100.092 94.0494 107.329 96.0649 109.46 96.6031M109.936 87.7411C111.897 88.3363 113.839 88.9787 115.773 89.6926M109.936 87.7411C109.544 87.9216 109.203 88.1493 108.914 88.4154M109.936 87.7411C110.51 87.4771 111.194 87.3141 111.986 87.2789C114.867 87.1513 118.142 88.1094 120.983 89.6507M115.773 89.6926C117.081 90.1751 118.384 90.6903 119.686 91.2455C119.784 91.2872 120.565 91.5793 121.559 92.0334M115.773 89.6926C115.715 89.7295 115.658 89.7686 115.604 89.8098C115.325 90.0212 115.09 90.2383 114.896 90.46M115.773 89.6926C116.916 88.9723 118.842 89.0623 120.983 89.6507M121.559 92.0334C121.791 92.1394 122.034 92.2542 122.283 92.3767M121.559 92.0334C121.534 92.0843 121.51 92.1362 121.489 92.1892M121.559 92.0334C121.816 91.513 122.26 91.0965 122.815 90.7672M122.283 92.3767C122.467 92.4672 122.654 92.5618 122.841 92.6602M122.283 92.3767C123.051 92.3011 123.816 92.2122 124.557 92.1075M122.283 92.3767C122.224 92.3826 122.165 92.3883 122.105 92.394M122.841 92.6602C123.161 92.8278 123.482 93.0064 123.793 93.1935M122.841 92.6602C122.557 92.5535 122.308 92.4641 122.105 92.394M122.841 92.6602C123.213 92.7996 123.643 92.9684 124.104 93.1617M123.793 93.1935C124.025 93.333 124.251 93.4772 124.466 93.6253M123.793 93.1935C123.447 93.2356 123.073 93.2885 122.683 93.3557M123.793 93.1935C123.805 93.1921 123.817 93.1906 123.829 93.1891C123.837 93.1883 123.936 93.1766 124.104 93.1617M124.466 93.6253C125.467 94.313 126.239 95.084 126.288 95.8455C126.356 96.9059 125.438 97.5071 124.006 97.8083M124.466 93.6253C123.872 93.4845 123.276 93.392 122.683 93.3557M124.466 93.6253C125.149 93.7871 125.828 94.0127 126.496 94.2906M124.006 97.8083C123.297 97.9574 122.462 98.033 121.557 98.0543M124.006 97.8083C124.196 97.993 124.392 98.174 124.593 98.3512M124.006 97.8083C123.065 96.8931 122.274 95.8859 121.75 94.7882C121.552 94.3719 121.426 93.987 121.363 93.6315M121.557 98.0543C120.849 98.0711 120.098 98.0545 119.332 98.014M121.557 98.0543C121.634 98.1089 121.713 98.1619 121.793 98.2129C122.117 98.4196 122.51 98.6359 122.951 98.8481M121.557 98.0543C119.961 96.9183 119.116 95.0443 120.029 94.0348M119.332 98.014C118.343 97.9616 117.33 97.8694 116.351 97.7571M119.332 98.014C120.2 98.465 121.093 98.8374 121.939 99.1031M119.332 98.014C118.433 97.5469 117.561 96.9955 116.796 96.391M116.351 97.7571C114.099 97.4989 112.028 97.1349 110.856 96.9082M116.351 97.7571C116.31 98.5605 116.763 99.1264 117.514 99.5122M116.351 97.7571C116.369 97.4117 116.477 97.0225 116.693 96.5849C116.725 96.519 116.76 96.4544 116.796 96.391M110.856 96.9082C110.463 96.8322 110.171 96.7717 110.007 96.7356C109.935 96.7197 109.742 96.6743 109.46 96.6031M110.856 96.9082C112.717 98.4028 115.126 99.2874 117.514 99.5122M110.856 96.9082C110.611 96.7117 110.376 96.5046 110.152 96.2871M109.46 96.6031C109.696 96.5069 109.927 96.4018 110.152 96.2871M109.46 96.6031C107.743 97.3022 105.74 97.528 103.824 97.5005M103.7 90.5059C105.035 90.1007 106.476 89.8943 107.969 89.8393M107.969 89.8393C109.314 89.7897 110.701 89.863 112.091 90.0242M112.091 90.0242C112.882 90.8035 113.331 91.7831 113.179 92.8273M114.896 90.46C117.225 90.9074 119.487 91.5401 121.489 92.1892M121.489 92.1892C121.607 92.2275 121.724 92.2658 121.84 92.3042C121.916 92.3292 122.005 92.3592 122.105 92.394M121.489 92.1892C121.454 92.2761 121.423 92.3658 121.398 92.4582M122.105 92.394C121.87 92.4166 121.634 92.438 121.398 92.4582M124.104 93.1617C124.861 93.4793 125.701 93.8629 126.496 94.2906M124.104 93.1617C124.416 93.1341 124.964 93.0955 125.592 93.0947M126.496 94.2906C126.509 94.2972 126.521 94.3039 126.533 94.3106M126.496 94.2906C126.508 94.2952 126.519 94.2998 126.53 94.3045M126.533 94.3106C127.457 94.8098 128.319 95.3687 128.919 95.9518M126.533 94.3106C126.532 94.3085 126.531 94.3065 126.53 94.3045M126.533 94.3106C126.9 94.9022 127.185 95.5461 127.333 96.1726M126.533 94.3106C126.576 94.9817 126.827 95.6358 127.333 96.1726M126.533 94.3106L126.534 94.3062M128.919 95.9518C129.386 96.4069 129.694 96.877 129.748 97.3458M128.919 95.9518C128.995 95.8587 129.064 95.7642 129.123 95.6682M128.919 95.9518C128.694 96.2249 128.397 96.4853 128.047 96.7321M129.748 97.3458C129.827 98.0339 129.357 98.719 128.038 99.3489C127.746 99.4884 127.175 99.6458 126.436 99.7885M129.748 97.3458C130.395 97.5117 131.121 97.6432 131.835 97.7081M129.748 97.3458C129.053 97.1676 128.448 96.9498 128.047 96.7321M126.436 99.7885C126.234 99.8274 126.021 99.8652 125.796 99.9013M126.436 99.7885C126.621 99.9177 126.808 100.044 126.996 100.168M126.436 99.7885C126.224 99.6406 126.014 99.4893 125.807 99.3345M125.796 99.9013C123.264 100.309 119.425 100.494 117.514 99.5122M125.796 99.9013C126.193 100.008 126.595 100.098 126.996 100.168M125.796 99.9013C125.409 99.7975 125.027 99.6787 124.657 99.5499M117.514 99.5122C118.105 99.5678 118.695 99.583 119.275 99.557C119.774 99.5346 120.765 99.3778 121.939 99.1031M116.796 96.391C117.439 95.2684 118.673 94.5273 120.029 94.0348M120.029 94.0348C120.466 93.876 120.916 93.7431 121.363 93.6315M120.029 94.0348C120.3 93.7354 120.725 93.512 121.331 93.4066M121.363 93.6315C121.811 93.5195 122.257 93.4291 122.683 93.3557M121.363 93.6315C121.35 93.5552 121.339 93.4802 121.331 93.4066M122.683 93.3557C122.579 93.3494 122.475 93.3447 122.372 93.3418C121.978 93.3309 121.632 93.3542 121.331 93.4066M125.592 93.0947C125.933 93.0943 126.299 93.1051 126.663 93.1351M125.592 93.0947C125.271 92.7578 124.924 92.428 124.557 92.1075M125.592 93.0947C125.612 93.116 125.632 93.1373 125.652 93.1586C125.973 93.4997 126.272 93.8894 126.53 94.3045M126.663 93.1351C127.893 93.2362 129.107 93.5556 129.337 94.3974C129.458 94.8439 129.369 95.2685 129.123 95.6682M126.663 93.1351C126.556 93.5187 126.51 93.9155 126.534 94.3062M126.663 93.1351C126.744 92.8476 126.858 92.5676 127.002 92.3031M129.123 95.6682C128.29 95.1408 127.421 94.6777 126.534 94.3062M129.123 95.6682C130.084 96.2767 130.996 96.9706 131.835 97.7081M128.047 96.7321C127.86 96.8634 127.659 96.9909 127.445 97.1144M128.047 96.7321C127.95 96.6798 127.865 96.6275 127.794 96.5757C127.621 96.4509 127.468 96.3159 127.333 96.1726M127.445 97.1144C126.623 97.5891 125.619 98.0042 124.593 98.3512M127.445 97.1144C127.448 96.8108 127.409 96.4938 127.333 96.1726M127.445 97.1144C127.434 98.0977 126.97 98.9407 125.807 99.3345M124.593 98.3512C124.044 98.5368 123.489 98.7028 122.951 98.8481M124.593 98.3512C124.981 98.693 125.388 99.0208 125.807 99.3345M122.951 98.8481C122.604 98.9419 122.265 99.027 121.939 99.1031M122.951 98.8481C123.465 99.0951 124.044 99.3364 124.657 99.5499M121.939 99.1031C122.956 99.4222 123.903 99.5874 124.657 99.5499M120.983 89.6507C121.619 89.9956 122.233 90.3696 122.815 90.7672M120.983 89.6507C121.763 89.8651 122.572 90.1455 123.381 90.4771M122.815 90.7672C123.435 91.1897 124.019 91.6387 124.557 92.1075M122.815 90.7672C122.993 90.6617 123.183 90.5652 123.381 90.4771M124.557 92.1075C125.123 92.0276 125.675 91.9384 126.204 91.839M126.53 94.3045L126.534 94.3062M125.807 99.3345C125.54 99.425 125.235 99.4918 124.891 99.5311C124.815 99.5397 124.737 99.5459 124.657 99.5499M114.184 92.8087C113.753 92.8172 113.411 92.8225 113.179 92.8273M123.381 90.4771C124.336 90.8682 125.292 91.3304 126.204 91.839M123.381 90.4771C123.395 90.4707 123.41 90.4643 123.424 90.458M126.204 91.839C126.474 91.9898 126.741 92.1447 127.002 92.3031M126.204 91.839C126.667 91.7519 127.111 91.6569 127.532 91.5533M127.002 92.3031C129.782 93.9852 131.991 96.0543 132.217 97.7364M127.002 92.3031C127.149 92.0342 127.327 91.7815 127.532 91.5533M132.217 97.7364C132.232 97.8489 132.238 97.9597 132.235 98.0686M132.217 97.7364C133.999 97.8375 135.598 97.478 135.554 96.1419C135.44 92.6368 133.796 90.7095 130.884 89.9978M132.217 97.7364C132.09 97.7292 131.963 97.7197 131.835 97.7081M132.235 98.0686C132.223 98.4925 132.07 98.8867 131.75 99.2374C130.722 100.366 128.879 100.497 126.996 100.168M132.235 98.0686C132.104 97.9474 131.97 97.8272 131.835 97.7081M132.235 98.0686C133.174 98.9345 134.008 99.8493 134.696 100.748C135.162 101.357 135.439 101.837 135.568 102.21M126.996 100.168C128.114 100.906 129.269 101.549 130.345 102.098C131.559 102.717 134.36 103.718 135.322 103.219M121.331 93.4066C121.295 93.0619 121.321 92.7465 121.398 92.4582M135.568 102.21C135.751 102.743 135.632 103.058 135.322 103.219M135.568 102.21C135.457 102.533 135.377 102.873 135.322 103.219M135.568 102.21C135.87 101.334 136.409 100.588 137.336 100.217M135.322 103.219C135.255 103.64 135.225 104.07 135.217 104.486M123.424 90.458C124.682 89.9099 126.284 89.6951 127.598 89.6772C128.825 89.6605 129.924 89.763 130.884 89.9978M123.424 90.458C124.929 90.9535 126.527 91.2166 127.947 91.1559M123.424 90.458C122.073 90.0133 120.797 89.3812 119.792 88.6281C116.956 86.5031 123.056 86.5841 123.732 86.6149C125.057 86.6753 130.867 86.8742 131.198 88.9749C131.257 89.352 131.142 89.6917 130.884 89.9978M130.884 89.9978C130.326 90.6617 129.098 91.1674 127.532 91.5533M127.532 91.5533C127.66 91.4105 127.799 91.2774 127.947 91.1559M127.947 91.1559C128.439 90.7529 129.035 90.4792 129.698 90.4113C130.17 90.363 128.997 91.0594 128.526 91.1118C128.337 91.1329 128.144 91.1475 127.947 91.1559ZM103.824 97.5005C103.377 97.4941 102.934 97.4738 102.501 97.4425C102.223 97.4225 101.932 97.3989 101.631 97.3712M103.824 97.5005C102.317 96.7384 100.759 96.072 99.0525 95.4483M103.824 97.5005C105.379 98.2867 106.88 99.1746 108.434 100.223C109.641 101.037 112.111 102.705 112.624 104.391C112.861 105.167 112.492 105.588 111.834 105.788M101.631 97.3712C100.884 97.3027 100.07 97.2095 99.2271 97.0846M101.631 97.3712C100.867 96.9806 100.092 96.6309 99.3261 96.3255M101.631 97.3712C104.734 98.9573 107.667 101.217 109.173 103.917C109.334 104.207 109.463 104.482 109.56 104.744M99.2271 97.0846C97.586 96.8416 95.8299 96.4787 94.2199 95.9452M99.2271 97.0846C99.3143 96.8258 99.3444 96.5721 99.3261 96.3255M99.2271 97.0846C99.1055 97.445 98.873 97.8152 98.506 98.1895C97.921 98.7861 97.1799 99.2413 96.3544 99.5564M94.2199 95.9452C92.74 95.4547 91.3835 94.8199 90.3534 94.0013C90.2518 93.9206 90.173 93.8456 90.1148 93.7757M94.2199 95.9452C94.0888 96.7715 94.9864 98.1704 96.0634 99.2663C96.1593 99.3639 96.2563 99.4606 96.3544 99.5564M94.2199 95.9452C94.3269 95.2707 95.1191 94.9776 97.0585 95.5421C97.793 95.7559 98.5552 96.0182 99.3261 96.3255M90.1148 93.7757C89.0164 92.4578 95.2815 93.0122 95.4112 93.0463C96.841 93.4221 98.4244 94.3121 99.0525 95.4483M90.1148 93.7757C89.4326 93.893 88.8001 94.1131 88.2488 94.4673C85.9959 95.9146 88.0624 98.6221 89.9275 99.4212C91.8915 100.263 94.3673 100.315 96.3544 99.5564M90.1148 93.7757C92.9107 93.2951 96.5393 94.5417 98.8153 95.3621C98.8947 95.3908 98.9738 95.4195 99.0525 95.4483M99.0525 95.4483C99.2067 95.7272 99.3034 96.0209 99.3261 96.3255M96.3544 99.5564C97.7621 100.932 99.3934 102.126 101.149 103.108M111.834 105.788C111.293 105.953 110.557 105.969 109.802 105.913M111.834 105.788C111.137 105.417 110.368 105.065 109.56 104.744M111.834 105.788C113.39 106.618 114.578 107.542 114.997 108.419M109.802 105.913C108.392 105.809 106.915 105.452 106.511 105.337C104.667 104.811 102.85 104.059 101.149 103.108M109.802 105.913C109.795 105.559 109.718 105.17 109.56 104.744M109.802 105.913C109.815 106.627 109.541 107.198 109.073 107.635M101.149 103.108C99.6486 103.267 98.6642 103.874 98.6945 105.105C98.7465 107.222 101.681 108.552 104.52 108.746M101.149 103.108C103.362 102.873 106.698 103.609 109.56 104.744M109.073 107.635C108.113 108.531 106.336 108.871 104.52 108.746M109.073 107.635C107.617 107.703 106.207 107.997 104.924 108.557C104.777 108.622 104.642 108.685 104.52 108.746M109.073 107.635C111.033 107.545 113.073 107.866 114.988 108.503M104.52 108.746C101.451 110.295 106.014 111.017 107.46 111.088C108.231 111.126 110.736 111.224 112.682 110.837M114.997 108.419C115.014 108.453 115.029 108.488 115.043 108.522M114.997 108.419C114.994 108.447 114.991 108.475 114.988 108.503M114.997 108.419C115.365 105.392 117.937 103.318 121.522 103.582C124.086 103.77 127.344 104.836 130.009 106.466M115.043 108.522C115.105 108.671 115.143 108.818 115.157 108.963C115.183 109.25 115.116 109.499 114.974 109.716M115.043 108.522C115.025 108.516 115.006 108.509 114.988 108.503M115.043 108.522C115.54 108.689 116.028 108.877 116.503 109.085M114.974 109.716C114.84 109.921 114.639 110.097 114.389 110.248M114.974 109.716C114.985 109.86 115.002 110.006 115.022 110.152M114.974 109.716C114.941 109.299 114.946 108.893 114.988 108.503M114.389 110.248C113.946 110.515 113.347 110.704 112.682 110.837M114.389 110.248C113.756 110.369 113.173 110.558 112.682 110.837M114.389 110.248C114.595 110.209 114.807 110.177 115.022 110.152M112.682 110.837C111.874 111.295 111.314 111.995 111.187 113.027C110.816 116.018 116.327 116.271 118.13 116.016C118.501 115.963 118.838 115.891 119.141 115.803M116.503 109.085C117.259 109.416 117.984 109.795 118.664 110.218M116.503 109.085C115.959 109.39 115.508 109.74 115.227 110.13M116.503 109.085C117.74 108.393 119.459 107.935 120.761 107.771C121.808 107.638 123.823 107.51 125.905 107.67M118.664 110.218C118.674 110.224 118.684 110.23 118.694 110.236C118.953 110.398 119.194 110.566 119.416 110.736M118.664 110.218C117.555 110.083 116.345 110.022 115.227 110.13M118.664 110.218C119.166 110.279 119.647 110.356 120.09 110.439M119.416 110.736C119.616 110.89 119.8 111.046 119.969 111.204M119.416 110.736C118.33 111.201 117.989 112.053 119.877 113.427C120.244 113.695 120.684 113.964 121.177 114.225M119.416 110.736C119.606 110.655 119.819 110.585 120.047 110.527M119.969 111.204C120.426 111.633 120.767 112.076 120.986 112.512M119.969 111.204C120.004 111.476 120.111 111.741 120.281 111.924C120.467 112.125 120.707 112.322 120.986 112.512M119.969 111.204C119.938 110.967 119.962 110.725 120.047 110.527M120.986 112.512C121.016 112.571 121.044 112.63 121.069 112.689M120.986 112.512C121.009 112.527 121.032 112.542 121.055 112.558M121.069 112.689C121.162 112.906 121.224 113.121 121.255 113.331M121.069 112.689C121.079 112.77 121.093 112.852 121.111 112.935C121.142 113.075 121.19 113.207 121.255 113.331M121.069 112.689C121.063 112.645 121.059 112.601 121.055 112.558M121.255 113.331C121.3 113.643 121.275 113.944 121.177 114.225M121.255 113.331C122.336 115.4 127.958 115.279 129.448 115.122C129.886 115.075 130.37 114.988 130.862 114.86M121.177 114.225C121.058 114.566 120.832 114.877 120.495 115.145M121.177 114.225C123.072 115.23 125.755 116.117 128.154 116.321M120.495 115.145C120.157 115.413 119.707 115.638 119.141 115.803M120.495 115.145C122.364 115.905 124.547 116.588 126.498 116.784M120.495 115.145C119.124 114.589 117.921 113.991 117.103 113.515C116.595 113.22 116.187 112.933 115.867 112.655M119.141 115.803C120.639 116.622 122.398 117.064 124.173 117.062C124.834 117.061 125.644 116.968 126.498 116.784M119.141 115.803C117.769 115.053 116.615 113.986 115.867 112.655M115.022 110.152C115.09 110.144 115.158 110.137 115.227 110.13M115.022 110.152C115.026 110.178 115.03 110.205 115.034 110.231C115.043 110.289 115.052 110.346 115.062 110.403M115.227 110.13C115.163 110.219 115.108 110.31 115.062 110.403M120.09 110.439C120.151 110.451 120.211 110.462 120.271 110.474M120.09 110.439C120.074 110.467 120.06 110.496 120.047 110.527M120.09 110.439C120.143 110.347 120.21 110.268 120.295 110.208C120.903 109.776 121.715 109.638 122.534 109.616M120.271 110.474C120.746 110.567 121.172 110.667 121.524 110.762M120.271 110.474C120.195 110.49 120.12 110.508 120.047 110.527M120.271 110.474C120.774 110.364 121.333 110.304 121.87 110.286M121.524 110.762C121.538 110.766 121.552 110.769 121.566 110.773C122.999 111.163 124.412 111.673 125.755 112.316C126.607 112.724 127.596 113.13 128.095 113.898C128.305 114.221 127.613 114.585 127.222 114.572C125.721 114.522 122.727 113.661 121.055 112.558M121.524 110.762C121.181 111.313 121.003 111.913 121.055 112.558M121.524 110.762C121.626 110.599 121.742 110.44 121.87 110.286M122.534 109.616C122.861 109.607 123.19 109.617 123.507 109.633C125.593 109.743 128.133 110.494 130.115 111.653M122.534 109.616C122.287 109.829 122.064 110.053 121.87 110.286M122.534 109.616C123.437 108.832 124.655 108.181 125.905 107.67M130.115 111.653C130.552 111.907 130.961 112.182 131.332 112.474C131.602 112.686 131.971 113.047 132.267 113.464M130.115 111.653C130.182 112.491 130.351 113.339 130.612 114.158M130.115 111.653C130.033 110.612 130.11 109.589 130.37 108.659M132.267 113.464C132.428 113.691 132.568 113.934 132.66 114.179M132.267 113.464C132.637 112.832 132.807 112.115 132.687 111.314C132.501 110.072 131.606 109.226 130.37 108.659M132.267 113.464C131.974 113.964 131.556 114.412 131.056 114.807M132.66 114.179C132.873 114.752 132.818 115.33 132.139 115.718C131.914 115.846 131.669 115.954 131.408 116.042M132.66 114.179C134.212 113.359 135.228 112.013 133.983 110.087C133.281 109.001 132.243 108.005 131.022 107.135M132.66 114.179C132.161 114.442 131.608 114.651 131.056 114.807M131.408 116.042C131.008 116.177 130.57 116.266 130.105 116.316M131.408 116.042C131.821 116.813 132.322 117.516 132.897 118.107M131.408 116.042C131.282 115.809 131.165 115.57 131.057 115.326M130.105 116.316C129.494 116.382 128.835 116.379 128.154 116.321M130.105 116.316C130.257 116.237 130.401 116.147 130.537 116.047C130.842 115.821 131.007 115.578 131.057 115.326M130.105 116.316C129.15 116.816 127.883 116.923 126.498 116.784M128.154 116.321C129.143 115.978 130.106 115.516 130.891 114.933M128.154 116.321C127.601 116.512 127.041 116.667 126.498 116.784M121.87 110.286C122.61 110.261 123.31 110.315 123.769 110.431C124.376 110.584 129.104 112.397 130.612 114.158M130.612 114.158C130.803 114.38 130.942 114.601 131.015 114.819M130.612 114.158C130.688 114.395 130.771 114.629 130.862 114.86M131.015 114.819C131.017 114.824 131.019 114.83 131.02 114.835M131.015 114.819C131.029 114.815 131.042 114.811 131.056 114.807M131.015 114.819C130.964 114.833 130.913 114.847 130.862 114.86M131.02 114.835C131.074 115.002 131.088 115.166 131.057 115.326M131.02 114.835C131.032 114.826 131.044 114.816 131.056 114.807M131.02 114.835C130.978 114.868 130.935 114.901 130.891 114.933M131.057 115.326C130.999 115.196 130.944 115.065 130.891 114.933M115.867 112.655C114.904 111.817 114.742 111.059 115.062 110.403M115.867 112.655C115.484 111.972 115.207 111.219 115.062 110.403M125.905 107.67C127.487 107.791 129.106 108.079 130.37 108.659M125.905 107.67C127.381 107.067 128.903 106.661 130.009 106.466M130.37 108.659C130.523 108.113 130.738 107.6 131.022 107.135M130.891 114.933C130.881 114.909 130.871 114.885 130.862 114.86M130.009 106.466C130.358 106.68 130.696 106.903 131.022 107.135M130.009 106.466C130.281 106.419 130.528 106.384 130.742 106.362C131.042 106.331 131.349 106.308 131.661 106.294M131.022 107.135C131.206 106.833 131.418 106.551 131.661 106.294M131.661 106.294C132.838 106.241 134.089 106.308 135.312 106.534M131.661 106.294C131.964 105.973 132.313 105.691 132.712 105.455C133.375 105.064 134.253 104.717 135.217 104.486M135.312 106.534C135.819 106.627 136.322 106.748 136.813 106.898M135.312 106.534C135.554 108.956 136.269 111.641 137.892 113.549C139.295 115.2 140.875 114.792 141.737 113.137C141.96 112.709 142.17 112.205 142.343 111.659M135.312 106.534C135.265 106.067 135.236 105.61 135.222 105.169C135.215 104.949 135.212 104.72 135.217 104.486M136.813 106.898C138.274 107.346 139.632 108.057 140.698 109.1M136.813 106.898C136.587 107.835 137.21 108.858 139.092 109.115C139.692 109.197 140.225 109.187 140.698 109.1M136.813 106.898C136.931 106.406 137.283 105.938 137.809 105.617M140.698 109.1C141.084 109.479 141.432 109.901 141.733 110.37C141.994 110.778 142.196 111.211 142.343 111.659M140.698 109.1C141.564 108.941 142.224 108.524 142.714 107.945M142.343 111.659C143.26 114.462 142.001 117.845 139.453 119.257M142.343 111.659C142.706 110.508 142.905 109.167 142.714 107.945M139.453 119.257C139.184 119.406 138.9 119.533 138.603 119.635C138.492 119.674 138.381 119.708 138.27 119.739M139.453 119.257C138.209 119.06 136.89 119.115 135.861 119.265M139.453 119.257C139.875 119.324 140.288 119.42 140.679 119.551M138.27 119.739C138.256 119.743 138.242 119.747 138.228 119.751M138.27 119.739C139.007 119.874 139.725 120.008 140.409 120.139M138.27 119.739C137.513 119.6 136.736 119.461 135.957 119.323M138.228 119.751C137.72 119.889 137.225 119.947 136.748 119.936M138.228 119.751C137.626 119.601 136.908 119.525 136.195 119.478M138.228 119.751C138.575 119.837 138.883 119.947 139.129 120.09C139.414 120.255 139.244 120.697 138.971 121.133M136.748 119.936C136.09 119.921 135.465 119.772 134.881 119.517M136.748 119.936C136.593 119.776 136.407 119.624 136.195 119.478M136.748 119.936C136.941 120.134 137.087 120.343 137.176 120.563C137.728 121.931 132.841 121.619 132.253 121.017C131.757 120.51 133.669 119.862 134.881 119.517M134.881 119.517C134.797 119.48 134.715 119.442 134.633 119.401M134.881 119.517C134.997 119.483 135.107 119.453 135.207 119.426M134.633 119.401C134.382 119.275 134.138 119.129 133.902 118.966M134.633 119.401C134.211 119.382 133.833 119.36 133.535 119.324C131.219 119.039 128.729 118.877 126.452 118.236C126.101 118.137 125.836 118.055 125.649 117.989M134.633 119.401C134.817 119.409 135.01 119.417 135.207 119.426M133.902 118.966C133.547 118.718 133.211 118.429 132.897 118.107M133.902 118.966C134.513 119.07 135.132 119.177 135.75 119.286M133.902 118.966C130.379 118.363 127.139 117.866 125.867 117.777M132.897 118.107C130.592 117.481 128.026 117.218 126.954 117.357C126.491 117.417 126.133 117.566 125.867 117.777M132.897 118.107C134.012 118.409 135.067 118.797 135.861 119.265M135.217 104.486C135.846 104.336 136.511 104.235 137.176 104.203M137.176 104.203C138.886 104.122 140.594 104.501 141.68 105.679C141.713 105.714 141.744 105.75 141.775 105.786M137.176 104.203C137.308 104.742 137.516 105.227 137.809 105.617M137.176 104.203C136.878 102.986 136.967 101.497 137.336 100.217M141.775 105.786C141.837 105.859 141.896 105.934 141.952 106.011M141.775 105.786C142.436 104.652 142.316 102.779 141.47 101.639C140.603 100.469 139.229 99.7115 137.75 100.084C137.604 100.12 137.466 100.165 137.336 100.217M141.775 105.786C141.758 105.815 141.74 105.844 141.722 105.873M141.952 106.011C142.364 106.577 142.603 107.241 142.714 107.945M141.952 106.011C141.875 105.962 141.798 105.916 141.722 105.873M141.952 106.011C141.969 106.021 141.986 106.032 142.003 106.043C142.408 106.301 142.846 106.649 143.282 107.059M142.714 107.945C142.938 107.681 143.126 107.382 143.282 107.059M137.336 100.217C137.695 98.9752 138.318 97.9305 139.109 97.5233C142.922 95.5612 143.858 101.613 143.905 103.704C143.931 104.877 143.755 106.081 143.282 107.059M141.722 105.873C141.176 106.725 140.155 107.108 138.634 106.327C138.306 106.159 138.033 105.916 137.809 105.617M141.722 105.873C140.109 104.951 138.706 105.07 137.809 105.617M143.282 107.059C143.687 107.441 144.091 107.878 144.466 108.349M144.466 108.349C145.291 109.385 145.976 110.589 146.23 111.742M144.466 108.349C144.718 109.607 145.278 110.921 145.882 112.069M144.466 108.349C144.102 106.535 144.376 104.839 146.077 103.929C147.111 103.376 148.516 107.8 149.213 110.119M146.23 111.742C146.314 112.128 146.351 112.508 146.328 112.875M146.23 111.742C146.123 111.839 146.006 111.949 145.882 112.069M146.23 111.742C146.275 111.701 146.318 111.663 146.358 111.627C147.007 111.051 148.13 110.42 149.213 110.119M146.328 112.875C146.287 113.524 146.061 114.131 145.587 114.649C145.552 114.688 144.011 116.029 143.932 115.395C143.796 114.309 144.999 112.925 145.882 112.069M146.328 112.875C146.597 113.34 146.863 113.762 147.102 114.121C147.543 114.785 148.667 116.711 149.78 116.034C150.228 115.762 150.629 115.384 150.966 114.947M146.328 112.875C146.179 112.618 146.029 112.348 145.882 112.069M149.213 110.119C150.855 109.663 152.405 109.965 152.074 112.367C151.954 113.238 151.557 114.183 150.966 114.947M149.213 110.119C149.398 110.732 149.533 111.197 149.598 111.385C150.026 112.612 150.475 113.796 150.966 114.947M150.966 114.947C152.079 117.561 153.41 120.009 155.213 122.418C155.448 122.731 156.541 124.009 155.883 123.838C152.278 122.898 148.652 121.903 145.017 121.082M145.017 121.082C144.77 121.026 144.523 120.971 144.276 120.917C144.087 120.876 143.886 120.833 143.674 120.788M145.017 121.082C144.886 120.841 144.683 120.618 144.404 120.436M145.017 121.082C145.587 122.129 144.8 123.515 142.921 123.319C142.046 123.228 141.41 122.972 140.979 122.615M143.674 120.788C143.275 120.704 142.838 120.614 142.369 120.521M143.674 120.788C143.934 120.74 144.178 120.636 144.404 120.436M143.674 120.788C143.344 120.848 142.987 120.819 142.599 120.78M142.369 120.521C141.876 120.422 141.347 120.319 140.794 120.212M142.369 120.521C142.276 120.431 142.167 120.338 142.039 120.243C141.935 120.164 141.826 120.091 141.712 120.022M142.369 120.521C142.462 120.61 142.538 120.696 142.599 120.78M140.794 120.212C140.667 120.188 140.538 120.163 140.409 120.139M140.794 120.212C140.639 120.257 140.488 120.308 140.339 120.366M140.794 120.212C141.091 120.126 141.399 120.062 141.712 120.022M140.409 120.139C140.382 120.214 140.359 120.29 140.339 120.366M140.409 120.139C140.478 119.94 140.569 119.742 140.679 119.551M135.957 119.323C135.888 119.311 135.819 119.299 135.75 119.286M135.957 119.323C135.926 119.304 135.894 119.284 135.861 119.265M135.957 119.323C136.04 119.374 136.119 119.425 136.195 119.478M135.75 119.286C135.658 119.308 135.462 119.357 135.207 119.426M135.75 119.286C135.784 119.278 135.804 119.274 135.808 119.273C135.826 119.271 135.844 119.268 135.861 119.265M125.867 117.777C125.23 117.732 125.087 117.79 125.649 117.989M125.867 117.777C125.786 117.842 125.713 117.913 125.649 117.989M125.649 117.989C125.104 118.634 125.178 119.652 125.695 120.583C126.781 122.542 129.324 123.417 131.442 123.781C133.813 124.19 136.121 123.965 137.815 122.5M135.207 119.426C135.527 119.44 135.86 119.456 136.195 119.478M138.971 121.133C138.663 121.626 138.222 122.112 138.155 122.18C138.045 122.293 137.931 122.399 137.815 122.5M138.971 121.133C138.614 121.412 138.297 121.738 138.033 122.106C137.926 122.257 137.854 122.388 137.815 122.5M138.971 121.133C139.38 120.814 139.842 120.557 140.339 120.366M137.815 122.5C137.676 122.901 137.963 123.067 138.591 123.035C139 123.015 140.037 122.886 140.979 122.615M140.679 119.551C141.048 119.675 141.396 119.83 141.712 120.022M140.679 119.551C141.24 118.574 142.301 117.744 143.584 117.564C145.268 117.328 145.451 118.822 144.86 119.855C144.716 120.106 144.564 120.295 144.404 120.436M141.712 120.022C142.102 119.972 142.502 119.959 142.904 119.986C143.54 120.028 144.037 120.196 144.404 120.436M142.599 120.78C143.255 121.678 142.196 122.265 140.979 122.615M142.599 120.78C142.276 120.748 141.932 120.71 141.566 120.713M140.979 122.615C140.282 122.038 140.119 121.198 140.339 120.366M109.983 113.152C109.265 112.833 108.29 112.55 107.659 112.078C105.563 110.511 108.531 106.722 109.897 105.856M109.897 105.856C109.908 105.849 109.919 105.842 109.929 105.836C111.541 104.851 113.555 104.102 115.684 103.583M109.897 105.856C110.895 106.335 111.902 106.801 112.92 107.247C113.534 107.515 121.576 111.214 122.075 109.677C122.167 109.393 117.518 106.14 117.172 105.773C116.43 104.987 115.948 104.255 115.684 103.583M109.897 105.856C105.356 103.674 100.977 101.212 96.3552 99.1556M115.684 103.583C118.333 102.937 121.159 102.648 123.61 102.707C125.686 102.758 127.501 101.965 129.17 100.926M115.684 103.583C114.946 101.703 115.907 100.286 117.661 99.463M129.17 100.926C130.256 100.25 131.281 99.4696 132.276 98.7499C133.938 97.5471 136.046 96.9994 137.607 95.6928C139.53 94.0829 132.62 97.1712 130.11 97.8663C128.039 98.4395 125.94 98.8698 123.812 99.1402M129.17 100.926C131.036 101.39 132.867 101.676 134.754 101.014C135.898 100.613 141.824 95.7526 139.634 94.3108C138.975 93.8769 136.606 94.0267 135.872 94.0393C134.41 94.0644 132.991 94.9902 131.778 95.6037C124.47 99.3013 114.641 97.2141 106.342 97.0882C105.307 97.0725 101.241 96.7018 104.471 97.4774C107.615 98.2326 110.868 98.864 114.064 99.2214C115.27 99.3563 116.469 99.4359 117.661 99.463M129.17 100.926C128.503 100.761 127.832 100.573 127.153 100.397C126.215 100.155 124.99 99.5677 123.812 99.1402M123.812 99.1402C121.787 99.3976 119.736 99.5101 117.661 99.463M123.812 99.1402C123.019 98.8521 122.247 98.6364 121.599 98.6475C120.127 98.6729 118.743 98.9549 117.661 99.463M139.603 112.628C139.334 113.893 138.12 113.962 136.868 114.115C135.648 114.264 131.914 113.638 134.84 114.655C135.303 114.816 138.714 115.794 137.507 116.744C136.629 117.435 135.29 116.839 134.359 116.425L134.343 116.418M48.7544 77.6167C49.9838 78.279 51.2676 79.4606 52.7018 79.6534C54.9448 79.955 57.2129 80.0766 59.4616 80.3772C64.5945 81.0632 69.9571 81.8726 75.073 81.8338C77.5941 81.8147 80.1167 81.856 82.6363 81.7931C85.9562 81.7102 89.0192 80.6823 92.4373 81.1854C98.3148 82.0507 104.444 83.4984 110.295 82.8C110.626 82.7606 110.958 82.7188 111.291 82.6762M111.291 82.6762C112.766 82.4874 114.26 82.2808 115.735 82.1754C116.025 82.1547 118.361 82.2327 117.341 81.8883C112.57 80.2768 107.373 79.5167 102.452 78.7095C101.494 78.5524 100.395 78.3811 99.4098 78.2576C98.6102 78.1574 98.8586 78.295 99.4491 78.6156C102.373 80.2031 105.489 81.3165 108.704 82.1121C109.559 82.3238 110.423 82.5128 111.291 82.6762ZM111.291 82.6762C113.871 83.1616 116.493 83.4214 119.081 83.3834C120.164 83.3675 121.251 83.1364 122.341 82.9746M122.341 82.9746C123.334 82.8273 124.331 82.7375 125.332 82.9193C126.075 83.0542 123.886 82.4618 123.158 82.2525C121.569 81.796 120 81.3048 118.434 80.7717C118.179 80.6849 116.679 80.1069 118.061 80.8661C119.438 81.6229 120.874 82.3281 122.341 82.9746ZM122.341 82.9746C124.265 83.8223 126.241 84.5689 128.201 85.1976C129.613 85.6503 130.989 85.7415 132.373 86.3326C133.7 86.8991 134.889 87.4434 136.026 88.3382C137.168 89.2373 138.498 89.8575 139.64 90.7275C140.776 91.5935 141.712 92.8538 142.764 93.8205C144.847 95.734 146.489 97.7051 148.298 99.8285C149.864 101.666 151.133 104.062 152.341 106.115C153.461 108.019 153.662 110.055 154.536 112.04C156.641 116.817 160.906 120.825 162.558 125.745C162.718 126.224 163.268 128.589 162.834 128.893C162.319 129.254 159.041 128.294 158.244 128.053C156.547 127.539 155.072 127.083 153.365 126.323C150.028 124.839 145.091 126.836 141.609 126.863M128.157 79.7556C133.845 80.7037 136.647 83.6432 140.559 87.5547C143.269 90.2647 146.512 92.6506 148.282 96.1907C150.079 99.7858 152.915 103.128 154.255 106.881C155.258 109.691 157.307 112.081 158.287 115.022M85.3571 93.4515C85.0802 93.0188 84.745 91.7116 84.5962 92.158C83.97 94.0366 83.8581 92.2024 84.7104 91.4922C87.4696 89.1928 86.7688 96.0618 87.3735 96.8754C89.4349 99.649 93.9098 101.588 96.9986 102.886C103.119 105.459 108.887 107.076 114.176 111.332C115.873 112.699 117.312 114.485 118.227 116.468C118.826 117.766 118.835 118.89 120.187 119.34C120.563 119.466 121 119.659 121.471 119.872M121.471 119.872C121.687 119.969 121.909 120.071 122.136 120.172M121.471 119.872C119.718 119.818 120.956 119.984 122.136 120.172M121.471 119.872C121.632 119.877 121.818 119.883 122.032 119.892C124.942 120.011 127.926 120.184 130.82 119.74C132.324 119.509 133.485 118.621 134.948 118.275C136.376 117.938 138.895 116.714 140.407 117.153C144.788 118.425 149.385 119.218 153.856 120.311C156.218 120.888 157.796 123.433 159.429 125.066C160.633 126.27 157.333 122.379 156.366 120.976C153.556 116.897 151.173 112.59 148.396 108.479C146.095 105.072 143.823 102.034 141.092 98.9678C138.495 96.0524 137.057 92.5103 134.853 89.3617C133.691 87.7022 132.321 86.0714 130.69 84.7728M122.136 120.172C123.482 120.773 124.98 121.363 126.083 120.995C127.069 120.667 124.058 120.536 123.04 120.33C122.786 120.278 122.463 120.224 122.136 120.172ZM130.69 84.7728C129.641 83.9381 128.484 83.2406 127.206 82.7611C125.75 82.2153 124.446 82.2062 122.926 81.9431C121.632 81.7193 120.342 81.3626 119.049 81.0195M130.69 84.7728C131.26 82.2992 126.978 80.2088 125.437 79.6034C122.223 78.3408 112.113 79.6285 113.859 80.0296M130.69 84.7728C130.609 85.1228 130.431 85.4804 130.135 85.8426C128.329 88.0496 122.775 83.0676 121.309 82.2094C120.549 81.7648 119.801 81.3591 119.049 81.0195M119.049 81.0195C117.501 80.6092 115.95 80.2184 114.385 80.098C114.151 80.08 113.978 80.0568 113.859 80.0296M119.049 81.0195C117.387 80.269 115.708 79.8414 113.859 80.0296M113.859 80.0296C113.447 80.0715 113.027 80.1439 112.597 80.2502C109.737 80.9558 106.857 81.5198 104.151 82.685C102.494 83.3982 100.771 84.8043 99.053 85.2339" stroke="black" stroke-width="5" stroke-linecap="round"/>
<path d="M155.679 129.156C153.002 128.101 149.791 127.81 146.977 127.789C144.671 127.771 141.959 126.954 139.666 126.519C136.354 125.891 132.991 126.292 129.675 125.72C127.401 125.328 125.055 124.185 122.944 123.246C120.525 122.17 117.842 121.697 115.383 120.603C112.372 119.263 109.23 118.269 106.186 117.076M106.186 117.076C103.785 116.135 101.444 115.071 99.2755 113.617C98.6494 113.197 98.0297 112.755 97.4183 112.293M106.186 117.076C107.439 117.869 108.699 118.657 110.071 119.302C115.148 121.684 120.429 123.74 125.769 125.424C126.731 125.728 128.031 126.444 126.301 126.262C124.351 126.057 121.944 126.01 120.099 125.226C116.812 123.828 113.565 122.319 110.302 120.867C105.453 118.709 101.218 116.012 97.1322 113.068M106.186 117.076C104.718 116.146 103.26 115.21 101.644 114.491C100.175 113.837 98.7989 113.072 97.4183 112.293M97.4183 112.293C97.3611 112.25 97.304 112.206 97.2469 112.163M97.4183 112.293C97.3623 112.261 97.3062 112.23 97.2502 112.198M97.2469 112.163C94.1204 109.777 91.2152 106.898 88.7743 103.997C84.4121 98.8115 78.9245 94.2708 72.87 90.9506C68.1371 88.3551 63.8173 85.1033 58.8732 82.84C57.8957 82.3926 54.9444 81.0921 55.9266 81.529C57.9248 82.4181 59.8213 83.4681 61.6186 84.7025C64.232 86.4976 66.3101 89.0146 68.771 90.99C70.3958 92.2941 72.1159 93.307 73.531 94.7705C78.0831 99.4783 83.8066 102.938 88.996 106.92C90.1329 107.792 91.2573 108.661 92.3791 109.519M97.2469 112.163C97.2481 112.174 97.2492 112.186 97.2502 112.198M97.2469 112.163C97.2167 111.851 97.1489 111.561 97.1142 111.433C96.306 108.444 94.1263 105.606 91.9571 103.289C87.635 98.6733 81.4215 94.0448 75.6956 91.0458C75.211 90.792 73.3773 89.9905 74.3004 89.223C74.9399 88.6913 75.8185 88.4233 76.8237 88.3329M92.3791 109.519C93.9593 110.728 95.5343 111.917 97.1322 113.068M92.3791 109.519C93.3746 110.113 94.4082 110.621 95.4733 111.204C96.072 111.532 96.6618 111.866 97.2502 112.198M92.3791 109.519C91.9922 109.288 91.611 109.044 91.2359 108.778C90.284 108.102 89.3798 107.311 88.3287 106.783C87.6628 106.449 85.6233 105.066 86.7442 106.279C88.1603 107.811 89.8889 109.246 91.554 110.542C92.857 111.556 94.9568 113.045 96.65 113.27C96.8872 113.302 97.0391 113.217 97.1322 113.068M97.1322 113.068C97.264 112.858 97.2781 112.518 97.2502 112.198M76.8237 88.3329C79.9918 88.0479 84.4179 89.5275 86.5826 90.0799C87.6481 90.3518 88.4467 90.5695 89.1193 90.7634M76.8237 88.3329C79.1791 88.9988 81.5835 89.6194 83.1003 89.973C84.4664 90.2914 85.8439 90.5575 87.2257 90.7667C87.805 90.8544 88.4747 91.113 88.9704 90.8618C89.0343 90.8294 89.0835 90.7966 89.1193 90.7634M76.8237 88.3329C74.6714 87.7244 72.56 87.0781 71.2039 86.5632C68.083 85.3783 68.3731 84.8818 71.7254 85.1926C72.3226 85.2479 72.9745 85.3217 73.6674 85.4102M89.1193 90.7634C90.8385 91.259 91.7347 91.5988 94.1597 92.2891C95.0511 92.5429 92.436 91.595 91.5587 91.2922C90.7436 91.0108 89.9278 90.7321 89.1113 90.4557M89.1193 90.7634C89.2267 90.6637 89.213 90.5606 89.1113 90.4557M89.1113 90.4557C83.9798 88.7182 78.8224 87.0689 73.6674 85.4102M89.1113 90.4557C88.6414 89.9715 86.2933 89.4512 85.3099 89.0729C82.8136 88.1125 78.9092 86.7278 75.9654 85.7336M73.6674 85.4102C71.671 84.7679 69.675 84.1241 67.6809 83.4732C67.0207 83.2577 66.3449 83.0792 65.7096 82.7965C65.5557 82.728 66.0442 82.7791 66.2076 82.8178C68.6046 83.3847 72.1845 84.4885 74.3301 85.1895C74.8239 85.3508 75.3753 85.5344 75.9654 85.7336M73.6674 85.4102C74.3936 85.5031 75.1648 85.6122 75.9654 85.7336M75.9654 85.7336C80.9079 86.4832 86.9681 87.7005 90.4477 88.4339C90.5595 88.4575 90.6706 88.481 90.7811 88.5044M90.7811 88.5044C95.1592 89.4315 98.547 90.234 102.128 91.1042M90.7811 88.5044C92.9786 89.378 95.0023 90.0968 96.188 90.5071C97.572 90.986 99.203 91.5391 100.95 92.0829M90.7811 88.5044C87.5715 87.2283 83.9913 85.6219 82.1109 84.1638C81.6621 83.8158 81.065 82.8598 81.5558 82.6347C82.7536 82.0854 84.2847 82.4293 85.6587 82.5369C91.0218 82.9568 97.0544 84.3101 102.223 85.6196C104.838 86.2822 107.403 86.9721 109.936 87.7411M102.128 91.1042C102.758 91.2574 103.395 91.4127 104.044 91.5711M102.128 91.1042C101.466 91.4242 101.094 91.7529 100.95 92.0829M102.128 91.1042C102.205 91.0672 102.285 91.0303 102.369 90.9935C102.441 90.9622 102.514 90.9316 102.587 90.9016M104.044 91.5711C105.261 91.8682 106.521 92.1764 107.868 92.5025M104.044 91.5711C104.89 92.3992 106.384 92.7452 107.968 92.8714M104.044 91.5711C104.036 91.5634 104.028 91.5555 104.02 91.5477C103.913 91.4405 103.833 91.3322 103.775 91.2237M107.868 92.5025C108.261 92.5976 108.661 92.6943 109.07 92.7927C109.28 92.8432 109.476 92.8905 109.66 92.9345M107.868 92.5025C107.897 92.625 107.93 92.748 107.968 92.8714M107.868 92.5025C107.854 92.4419 107.84 92.3814 107.828 92.3211M109.66 92.9345C111.785 93.4442 112.121 93.5105 110.048 92.9328M109.66 92.9345C109.79 92.9347 109.92 92.9341 110.048 92.9328M109.66 92.9345C109.101 92.9333 108.529 92.9161 107.968 92.8714M110.048 92.9328C109.693 92.8339 109.268 92.7161 108.768 92.5783C108.498 92.5037 108.181 92.4172 107.828 92.3211M110.048 92.9328C111.248 92.9206 112.356 92.8457 113.113 92.8287C113.134 92.8283 113.156 92.8278 113.179 92.8273M107.828 92.3211C106.743 92.0256 105.309 91.6388 103.775 91.2237M107.828 92.3211C107.649 91.4357 107.698 90.5834 107.969 89.8393M103.775 91.2237C103.384 91.1178 102.987 91.0101 102.587 90.9016M103.775 91.2237C103.648 90.9834 103.634 90.7415 103.7 90.5059M102.587 90.9016C99.5204 90.07 96.3125 89.1911 94.8147 88.7342C92.9575 88.1675 91.0855 87.6187 89.2951 86.8593C88.4928 86.519 87.166 86.2645 87.0941 85.4594C87.0333 84.7789 88.3959 84.8836 89.1144 84.8357C92.916 84.5822 97.6213 85.3771 101.258 86.252C103.447 86.7785 105.879 87.4469 108.229 88.3202M102.587 90.9016C102.948 90.7528 103.32 90.6213 103.7 90.5059M108.229 88.3202C108.417 88.3901 108.605 88.4612 108.792 88.5338M108.229 88.3202C107.621 88.2687 107.006 88.3053 106.415 88.4462C105.735 88.6083 103.984 89.5 103.7 90.5059M108.229 88.3202C108.459 88.3396 108.688 88.3717 108.914 88.4154M108.792 88.5338C109.924 88.9732 111.03 89.4619 112.074 90.0071M108.792 88.5338C108.422 88.9081 108.148 89.3503 107.969 89.8393M108.792 88.5338C108.832 88.4935 108.872 88.4541 108.914 88.4154M112.074 90.0071C112.086 90.0136 112.098 90.02 112.111 90.0265M112.074 90.0071C111.275 89.2278 110.134 88.6514 108.914 88.4154M112.074 90.0071C112.08 90.0128 112.085 90.0185 112.091 90.0242M112.111 90.0265C112.851 90.4145 113.559 90.831 114.222 91.2787C114.259 91.3035 114.295 91.3284 114.332 91.3531M112.111 90.0265C112.104 90.0257 112.098 90.025 112.091 90.0242M112.111 90.0265C113.042 90.1351 113.974 90.2831 114.896 90.46M114.332 91.3531C115.056 91.85 115.634 92.3293 116.009 92.7621M114.332 91.3531C114.138 91.8297 114.098 92.3185 114.184 92.8087M114.332 91.3531C114.455 91.0495 114.64 90.7508 114.896 90.46M116.009 92.7621C116.818 93.6952 116.683 94.4124 115.03 94.6236M116.009 92.7621C117.531 92.7135 119.446 92.6259 121.398 92.4582M116.009 92.7621C115.305 92.7846 114.685 92.7988 114.184 92.8087M115.03 94.6236C114.628 94.675 114.136 94.6965 113.545 94.6838C113.146 94.6752 112.733 94.653 112.31 94.6186M115.03 94.6236C115.488 95.2413 116.097 95.8383 116.796 96.391M115.03 94.6236C114.59 94.0306 114.29 93.4186 114.184 92.8087M112.31 94.6186C111.097 94.5201 109.796 94.3213 108.46 94.0556M112.31 94.6186C112.819 94.0172 113.093 93.4121 113.179 92.8273M112.31 94.6186C112.258 94.68 112.204 94.7414 112.147 94.8027C111.576 95.4174 110.899 95.9051 110.152 96.2871M108.46 94.0556C105.965 93.5595 103.348 92.8299 100.95 92.0829M108.46 94.0556C108.48 94.0944 108.501 94.1332 108.523 94.1719C108.958 94.9602 109.511 95.6662 110.152 96.2871M108.46 94.0556C108.251 93.6617 108.087 93.2649 107.968 92.8714M100.95 92.0829C100.092 94.0494 107.329 96.0649 109.46 96.6031M109.936 87.7411C111.897 88.3363 113.839 88.9787 115.773 89.6926M109.936 87.7411C109.544 87.9216 109.203 88.1493 108.914 88.4154M109.936 87.7411C110.51 87.4771 111.194 87.3141 111.986 87.2789C114.867 87.1513 118.142 88.1094 120.983 89.6507M115.773 89.6926C117.081 90.1751 118.384 90.6903 119.686 91.2455C119.784 91.2872 120.565 91.5793 121.559 92.0334M115.773 89.6926C115.715 89.7295 115.658 89.7686 115.604 89.8098C115.325 90.0212 115.09 90.2383 114.896 90.46M115.773 89.6926C116.916 88.9723 118.842 89.0623 120.983 89.6507M121.559 92.0334C121.791 92.1394 122.034 92.2542 122.283 92.3767M121.559 92.0334C121.534 92.0843 121.51 92.1362 121.489 92.1892M121.559 92.0334C121.816 91.513 122.26 91.0965 122.815 90.7672M122.283 92.3767C122.467 92.4672 122.654 92.5618 122.841 92.6602M122.283 92.3767C123.051 92.3011 123.816 92.2122 124.557 92.1075M122.283 92.3767C122.224 92.3826 122.165 92.3883 122.105 92.394M122.841 92.6602C123.161 92.8278 123.482 93.0064 123.793 93.1935M122.841 92.6602C122.557 92.5535 122.308 92.4641 122.105 92.394M122.841 92.6602C123.213 92.7996 123.643 92.9684 124.104 93.1617M123.793 93.1935C124.025 93.333 124.251 93.4772 124.466 93.6253M123.793 93.1935C123.447 93.2356 123.073 93.2885 122.683 93.3557M123.793 93.1935C123.805 93.1921 123.817 93.1906 123.829 93.1891C123.837 93.1883 123.936 93.1766 124.104 93.1617M124.466 93.6253C125.467 94.313 126.239 95.084 126.288 95.8455C126.356 96.9059 125.438 97.5071 124.006 97.8083M124.466 93.6253C123.872 93.4845 123.276 93.392 122.683 93.3557M124.466 93.6253C125.149 93.7871 125.828 94.0127 126.496 94.2906M124.006 97.8083C123.297 97.9574 122.462 98.033 121.557 98.0543M124.006 97.8083C124.196 97.993 124.392 98.174 124.593 98.3512M124.006 97.8083C123.065 96.8931 122.274 95.8859 121.75 94.7882C121.552 94.3719 121.426 93.987 121.363 93.6315M121.557 98.0543C120.849 98.0711 120.098 98.0545 119.332 98.014M121.557 98.0543C121.634 98.1089 121.713 98.1619 121.793 98.2129C122.117 98.4196 122.51 98.6359 122.951 98.8481M121.557 98.0543C119.961 96.9183 119.116 95.0443 120.029 94.0348M119.332 98.014C118.343 97.9616 117.33 97.8694 116.351 97.7571M119.332 98.014C120.2 98.465 121.093 98.8374 121.939 99.1031M119.332 98.014C118.433 97.5469 117.561 96.9955 116.796 96.391M116.351 97.7571C114.099 97.4989 112.028 97.1349 110.856 96.9082M116.351 97.7571C116.31 98.5605 116.763 99.1264 117.514 99.5122M116.351 97.7571C116.369 97.4117 116.477 97.0225 116.693 96.5849C116.725 96.519 116.76 96.4544 116.796 96.391M110.856 96.9082C110.463 96.8322 110.171 96.7717 110.007 96.7356C109.935 96.7197 109.742 96.6743 109.46 96.6031M110.856 96.9082C112.717 98.4028 115.126 99.2874 117.514 99.5122M110.856 96.9082C110.611 96.7117 110.376 96.5046 110.152 96.2871M109.46 96.6031C109.696 96.5069 109.927 96.4018 110.152 96.2871M109.46 96.6031C107.743 97.3022 105.74 97.528 103.824 97.5005M103.7 90.5059C105.035 90.1007 106.476 89.8943 107.969 89.8393M107.969 89.8393C109.314 89.7897 110.701 89.863 112.091 90.0242M112.091 90.0242C112.882 90.8035 113.331 91.7831 113.179 92.8273M114.896 90.46C117.225 90.9074 119.487 91.5401 121.489 92.1892M121.489 92.1892C121.607 92.2275 121.724 92.2658 121.84 92.3042C121.916 92.3292 122.005 92.3592 122.105 92.394M121.489 92.1892C121.454 92.2761 121.423 92.3658 121.398 92.4582M122.105 92.394C121.87 92.4166 121.634 92.438 121.398 92.4582M124.104 93.1617C124.861 93.4793 125.701 93.8629 126.496 94.2906M124.104 93.1617C124.416 93.1341 124.964 93.0955 125.592 93.0947M126.496 94.2906C126.509 94.2972 126.521 94.3039 126.533 94.3106M126.496 94.2906C126.508 94.2952 126.519 94.2998 126.53 94.3045M126.533 94.3106C127.457 94.8098 128.319 95.3687 128.919 95.9518M126.533 94.3106C126.532 94.3085 126.531 94.3065 126.53 94.3045M126.533 94.3106C126.9 94.9022 127.185 95.5461 127.333 96.1726M126.533 94.3106C126.576 94.9817 126.827 95.6358 127.333 96.1726M126.533 94.3106L126.534 94.3062M128.919 95.9518C129.386 96.4069 129.694 96.877 129.748 97.3458M128.919 95.9518C128.995 95.8587 129.064 95.7642 129.123 95.6682M128.919 95.9518C128.694 96.2249 128.397 96.4853 128.047 96.7321M129.748 97.3458C129.827 98.0339 129.357 98.719 128.038 99.3489C127.746 99.4884 127.175 99.6458 126.436 99.7885M129.748 97.3458C130.395 97.5117 131.121 97.6432 131.835 97.7081M129.748 97.3458C129.053 97.1676 128.448 96.9498 128.047 96.7321M126.436 99.7885C126.234 99.8274 126.021 99.8652 125.796 99.9013M126.436 99.7885C126.621 99.9177 126.808 100.044 126.996 100.168M126.436 99.7885C126.224 99.6406 126.014 99.4893 125.807 99.3345M125.796 99.9013C123.264 100.309 119.425 100.494 117.514 99.5122M125.796 99.9013C126.193 100.008 126.595 100.098 126.996 100.168M125.796 99.9013C125.409 99.7975 125.027 99.6787 124.657 99.5499M117.514 99.5122C118.105 99.5678 118.695 99.583 119.275 99.557C119.774 99.5346 120.765 99.3778 121.939 99.1031M116.796 96.391C117.439 95.2684 118.673 94.5273 120.029 94.0348M120.029 94.0348C120.466 93.876 120.916 93.7431 121.363 93.6315M120.029 94.0348C120.3 93.7354 120.725 93.512 121.331 93.4066M121.363 93.6315C121.811 93.5195 122.257 93.4291 122.683 93.3557M121.363 93.6315C121.35 93.5552 121.339 93.4802 121.331 93.4066M122.683 93.3557C122.579 93.3494 122.475 93.3447 122.372 93.3418C121.978 93.3309 121.632 93.3542 121.331 93.4066M125.592 93.0947C125.933 93.0943 126.299 93.1051 126.663 93.1351M125.592 93.0947C125.271 92.7578 124.924 92.428 124.557 92.1075M125.592 93.0947C125.612 93.116 125.632 93.1373 125.652 93.1586C125.973 93.4997 126.272 93.8894 126.53 94.3045M126.663 93.1351C127.893 93.2362 129.107 93.5556 129.337 94.3974C129.458 94.8439 129.369 95.2685 129.123 95.6682M126.663 93.1351C126.556 93.5187 126.51 93.9155 126.534 94.3062M126.663 93.1351C126.744 92.8476 126.858 92.5676 127.002 92.3031M129.123 95.6682C128.29 95.1408 127.421 94.6777 126.534 94.3062M129.123 95.6682C130.084 96.2767 130.996 96.9706 131.835 97.7081M128.047 96.7321C127.86 96.8634 127.659 96.9909 127.445 97.1144M128.047 96.7321C127.95 96.6798 127.865 96.6275 127.794 96.5757C127.621 96.4509 127.468 96.3159 127.333 96.1726M127.445 97.1144C126.623 97.5891 125.619 98.0042 124.593 98.3512M127.445 97.1144C127.448 96.8108 127.409 96.4938 127.333 96.1726M127.445 97.1144C127.434 98.0977 126.97 98.9407 125.807 99.3345M124.593 98.3512C124.044 98.5368 123.489 98.7028 122.951 98.8481M124.593 98.3512C124.981 98.693 125.388 99.0208 125.807 99.3345M122.951 98.8481C122.604 98.9419 122.265 99.027 121.939 99.1031M122.951 98.8481C123.465 99.0951 124.044 99.3364 124.657 99.5499M121.939 99.1031C122.956 99.4222 123.903 99.5874 124.657 99.5499M120.983 89.6507C121.619 89.9956 122.233 90.3696 122.815 90.7672M120.983 89.6507C121.763 89.8651 122.572 90.1455 123.381 90.4771M122.815 90.7672C123.435 91.1897 124.019 91.6387 124.557 92.1075M122.815 90.7672C122.993 90.6617 123.183 90.5652 123.381 90.4771M124.557 92.1075C125.123 92.0276 125.675 91.9384 126.204 91.839M126.53 94.3045L126.534 94.3062M125.807 99.3345C125.54 99.425 125.235 99.4918 124.891 99.5311C124.815 99.5397 124.737 99.5459 124.657 99.5499M114.184 92.8087C113.753 92.8172 113.411 92.8225 113.179 92.8273M123.381 90.4771C124.336 90.8682 125.292 91.3304 126.204 91.839M123.381 90.4771C123.395 90.4707 123.41 90.4643 123.424 90.458M126.204 91.839C126.474 91.9898 126.741 92.1447 127.002 92.3031M126.204 91.839C126.667 91.7519 127.111 91.6569 127.532 91.5533M127.002 92.3031C129.782 93.9852 131.991 96.0543 132.217 97.7364M127.002 92.3031C127.149 92.0342 127.327 91.7815 127.532 91.5533M132.217 97.7364C132.232 97.8489 132.238 97.9597 132.235 98.0686M132.217 97.7364C133.999 97.8375 135.598 97.478 135.554 96.1419C135.44 92.6368 133.796 90.7095 130.884 89.9978M132.217 97.7364C132.09 97.7292 131.963 97.7197 131.835 97.7081M132.235 98.0686C132.223 98.4925 132.07 98.8867 131.75 99.2374C130.722 100.366 128.879 100.497 126.996 100.168M132.235 98.0686C132.104 97.9474 131.97 97.8272 131.835 97.7081M132.235 98.0686C133.174 98.9345 134.008 99.8493 134.696 100.748C135.162 101.357 135.439 101.837 135.568 102.21M126.996 100.168C128.114 100.906 129.269 101.549 130.345 102.098C131.559 102.717 134.36 103.718 135.322 103.219M121.331 93.4066C121.295 93.0619 121.321 92.7465 121.398 92.4582M135.568 102.21C135.751 102.743 135.632 103.058 135.322 103.219M135.568 102.21C135.457 102.533 135.377 102.873 135.322 103.219M135.568 102.21C135.87 101.334 136.409 100.588 137.336 100.217M135.322 103.219C135.255 103.64 135.225 104.07 135.217 104.486M123.424 90.458C124.682 89.9099 126.284 89.6951 127.598 89.6772C128.825 89.6605 129.924 89.763 130.884 89.9978M123.424 90.458C124.929 90.9535 126.527 91.2166 127.947 91.1559M123.424 90.458C122.073 90.0133 120.797 89.3812 119.792 88.6281C116.956 86.5031 123.056 86.5841 123.732 86.6149C125.057 86.6753 130.867 86.8742 131.198 88.9749C131.257 89.352 131.142 89.6917 130.884 89.9978M130.884 89.9978C130.326 90.6617 129.098 91.1674 127.532 91.5533M127.532 91.5533C127.66 91.4105 127.799 91.2774 127.947 91.1559M127.947 91.1559C128.439 90.7529 129.035 90.4792 129.698 90.4113C130.17 90.363 128.997 91.0594 128.526 91.1118C128.337 91.1329 128.144 91.1475 127.947 91.1559ZM103.824 97.5005C103.377 97.4941 102.934 97.4738 102.501 97.4425C102.223 97.4225 101.932 97.3989 101.631 97.3712M103.824 97.5005C102.317 96.7384 100.759 96.072 99.0525 95.4483M103.824 97.5005C105.379 98.2867 106.88 99.1746 108.434 100.223C109.641 101.037 112.111 102.705 112.624 104.391C112.861 105.167 112.492 105.588 111.834 105.788M101.631 97.3712C100.884 97.3027 100.07 97.2095 99.2271 97.0846M101.631 97.3712C100.867 96.9806 100.092 96.6309 99.3261 96.3255M101.631 97.3712C104.734 98.9573 107.667 101.217 109.173 103.917C109.334 104.207 109.463 104.482 109.56 104.744M99.2271 97.0846C97.586 96.8416 95.8299 96.4787 94.2199 95.9452M99.2271 97.0846C99.3143 96.8258 99.3444 96.5721 99.3261 96.3255M99.2271 97.0846C99.1055 97.445 98.873 97.8152 98.506 98.1895C97.921 98.7861 97.1799 99.2413 96.3544 99.5564M94.2199 95.9452C92.74 95.4547 91.3835 94.8199 90.3534 94.0013C90.2518 93.9206 90.173 93.8456 90.1148 93.7757M94.2199 95.9452C94.0888 96.7715 94.9864 98.1704 96.0634 99.2663C96.1593 99.3639 96.2563 99.4606 96.3544 99.5564M94.2199 95.9452C94.3269 95.2707 95.1191 94.9776 97.0585 95.5421C97.793 95.7559 98.5552 96.0182 99.3261 96.3255M90.1148 93.7757C89.0164 92.4578 95.2815 93.0122 95.4112 93.0463C96.841 93.4221 98.4244 94.3121 99.0525 95.4483M90.1148 93.7757C89.4326 93.893 88.8001 94.1131 88.2488 94.4673C85.9959 95.9146 88.0624 98.6221 89.9275 99.4212C91.8915 100.263 94.3673 100.315 96.3544 99.5564M90.1148 93.7757C92.9107 93.2951 96.5393 94.5417 98.8153 95.3621C98.8947 95.3908 98.9738 95.4195 99.0525 95.4483M99.0525 95.4483C99.2067 95.7272 99.3034 96.0209 99.3261 96.3255M96.3544 99.5564C97.7621 100.932 99.3934 102.126 101.149 103.108M111.834 105.788C111.293 105.953 110.557 105.969 109.802 105.913M111.834 105.788C111.137 105.417 110.368 105.065 109.56 104.744M111.834 105.788C113.39 106.618 114.578 107.542 114.997 108.419M109.802 105.913C108.392 105.809 106.915 105.452 106.511 105.337C104.667 104.811 102.85 104.059 101.149 103.108M109.802 105.913C109.795 105.559 109.718 105.17 109.56 104.744M109.802 105.913C109.815 106.627 109.541 107.198 109.073 107.635M101.149 103.108C99.6486 103.267 98.6642 103.874 98.6945 105.105C98.7465 107.222 101.681 108.552 104.52 108.746M101.149 103.108C103.362 102.873 106.698 103.609 109.56 104.744M109.073 107.635C108.113 108.531 106.336 108.871 104.52 108.746M109.073 107.635C107.617 107.703 106.207 107.997 104.924 108.557C104.777 108.622 104.642 108.685 104.52 108.746M109.073 107.635C111.033 107.545 113.073 107.866 114.988 108.503M104.52 108.746C101.451 110.295 106.014 111.017 107.46 111.088C108.231 111.126 110.736 111.224 112.682 110.837M114.997 108.419C115.014 108.453 115.029 108.488 115.043 108.522M114.997 108.419C114.994 108.447 114.991 108.475 114.988 108.503M114.997 108.419C115.365 105.392 117.937 103.318 121.522 103.582C124.086 103.77 127.344 104.836 130.009 106.466M115.043 108.522C115.105 108.671 115.143 108.818 115.157 108.963C115.183 109.25 115.116 109.499 114.974 109.716M115.043 108.522C115.025 108.516 115.006 108.509 114.988 108.503M115.043 108.522C115.54 108.689 116.028 108.877 116.503 109.085M114.974 109.716C114.84 109.921 114.639 110.097 114.389 110.248M114.974 109.716C114.985 109.86 115.002 110.006 115.022 110.152M114.974 109.716C114.941 109.299 114.946 108.893 114.988 108.503M114.389 110.248C113.946 110.515 113.347 110.704 112.682 110.837M114.389 110.248C113.756 110.369 113.173 110.558 112.682 110.837M114.389 110.248C114.595 110.209 114.807 110.177 115.022 110.152M112.682 110.837C111.874 111.295 111.314 111.995 111.187 113.027C110.816 116.018 116.327 116.271 118.13 116.016C118.501 115.963 118.838 115.891 119.141 115.803M116.503 109.085C117.259 109.416 117.984 109.795 118.664 110.218M116.503 109.085C115.959 109.39 115.508 109.74 115.227 110.13M116.503 109.085C117.74 108.393 119.459 107.935 120.761 107.771C121.808 107.638 123.823 107.51 125.905 107.67M118.664 110.218C118.674 110.224 118.684 110.23 118.694 110.236C118.953 110.398 119.194 110.566 119.416 110.736M118.664 110.218C117.555 110.083 116.345 110.022 115.227 110.13M118.664 110.218C119.166 110.279 119.647 110.356 120.09 110.439M119.416 110.736C119.616 110.89 119.8 111.046 119.969 111.204M119.416 110.736C118.33 111.201 117.989 112.053 119.877 113.427C120.244 113.695 120.684 113.964 121.177 114.225M119.416 110.736C119.606 110.655 119.819 110.585 120.047 110.527M119.969 111.204C120.426 111.633 120.767 112.076 120.986 112.512M119.969 111.204C120.004 111.476 120.111 111.741 120.281 111.924C120.467 112.125 120.707 112.322 120.986 112.512M119.969 111.204C119.938 110.967 119.962 110.725 120.047 110.527M120.986 112.512C121.016 112.571 121.044 112.63 121.069 112.689M120.986 112.512C121.009 112.527 121.032 112.542 121.055 112.558M121.069 112.689C121.162 112.906 121.224 113.121 121.255 113.331M121.069 112.689C121.079 112.77 121.093 112.852 121.111 112.935C121.142 113.075 121.19 113.207 121.255 113.331M121.069 112.689C121.063 112.645 121.059 112.601 121.055 112.558M121.255 113.331C121.3 113.643 121.275 113.944 121.177 114.225M121.255 113.331C122.336 115.4 127.958 115.279 129.448 115.122C129.886 115.075 130.37 114.988 130.862 114.86M121.177 114.225C121.058 114.566 120.832 114.877 120.495 115.145M121.177 114.225C123.072 115.23 125.755 116.117 128.154 116.321M120.495 115.145C120.157 115.413 119.707 115.638 119.141 115.803M120.495 115.145C122.364 115.905 124.547 116.588 126.498 116.784M120.495 115.145C119.124 114.589 117.921 113.991 117.103 113.515C116.595 113.22 116.187 112.933 115.867 112.655M119.141 115.803C120.639 116.622 122.398 117.064 124.173 117.062C124.834 117.061 125.644 116.968 126.498 116.784M119.141 115.803C117.769 115.053 116.615 113.986 115.867 112.655M115.022 110.152C115.09 110.144 115.158 110.137 115.227 110.13M115.022 110.152C115.026 110.178 115.03 110.205 115.034 110.231C115.043 110.289 115.052 110.346 115.062 110.403M115.227 110.13C115.163 110.219 115.108 110.31 115.062 110.403M120.09 110.439C120.151 110.451 120.211 110.462 120.271 110.474M120.09 110.439C120.074 110.467 120.06 110.496 120.047 110.527M120.09 110.439C120.143 110.347 120.21 110.268 120.295 110.208C120.903 109.776 121.715 109.638 122.534 109.616M120.271 110.474C120.746 110.567 121.172 110.667 121.524 110.762M120.271 110.474C120.195 110.49 120.12 110.508 120.047 110.527M120.271 110.474C120.774 110.364 121.333 110.304 121.87 110.286M121.524 110.762C121.538 110.766 121.552 110.769 121.566 110.773C122.999 111.163 124.412 111.673 125.755 112.316C126.607 112.724 127.596 113.13 128.095 113.898C128.305 114.221 127.613 114.585 127.222 114.572C125.721 114.522 122.727 113.661 121.055 112.558M121.524 110.762C121.181 111.313 121.003 111.913 121.055 112.558M121.524 110.762C121.626 110.599 121.742 110.44 121.87 110.286M122.534 109.616C122.861 109.607 123.19 109.617 123.507 109.633C125.593 109.743 128.133 110.494 130.115 111.653M122.534 109.616C122.287 109.829 122.064 110.053 121.87 110.286M122.534 109.616C123.437 108.832 124.655 108.181 125.905 107.67M130.115 111.653C130.552 111.907 130.961 112.182 131.332 112.474C131.602 112.686 131.971 113.047 132.267 113.464M130.115 111.653C130.182 112.491 130.351 113.339 130.612 114.158M130.115 111.653C130.033 110.612 130.11 109.589 130.37 108.659M132.267 113.464C132.428 113.691 132.568 113.934 132.66 114.179M132.267 113.464C132.637 112.832 132.807 112.115 132.687 111.314C132.501 110.072 131.606 109.226 130.37 108.659M132.267 113.464C131.974 113.964 131.556 114.412 131.056 114.807M132.66 114.179C132.873 114.752 132.818 115.33 132.139 115.718C131.914 115.846 131.669 115.954 131.408 116.042M132.66 114.179C134.212 113.359 135.228 112.013 133.983 110.087C133.281 109.001 132.243 108.005 131.022 107.135M132.66 114.179C132.161 114.442 131.608 114.651 131.056 114.807M131.408 116.042C131.008 116.177 130.57 116.266 130.105 116.316M131.408 116.042C131.821 116.813 132.322 117.516 132.897 118.107M131.408 116.042C131.282 115.809 131.165 115.57 131.057 115.326M130.105 116.316C129.494 116.382 128.835 116.379 128.154 116.321M130.105 116.316C130.257 116.237 130.401 116.147 130.537 116.047C130.842 115.821 131.007 115.578 131.057 115.326M130.105 116.316C129.15 116.816 127.883 116.923 126.498 116.784M128.154 116.321C129.143 115.978 130.106 115.516 130.891 114.933M128.154 116.321C127.601 116.512 127.041 116.667 126.498 116.784M121.87 110.286C122.61 110.261 123.31 110.315 123.769 110.431C124.376 110.584 129.104 112.397 130.612 114.158M130.612 114.158C130.803 114.38 130.942 114.601 131.015 114.819M130.612 114.158C130.688 114.395 130.771 114.629 130.862 114.86M131.015 114.819C131.017 114.824 131.019 114.83 131.02 114.835M131.015 114.819C131.029 114.815 131.042 114.811 131.056 114.807M131.015 114.819C130.964 114.833 130.913 114.847 130.862 114.86M131.02 114.835C131.074 115.002 131.088 115.166 131.057 115.326M131.02 114.835C131.032 114.826 131.044 114.816 131.056 114.807M131.02 114.835C130.978 114.868 130.935 114.901 130.891 114.933M131.057 115.326C130.999 115.196 130.944 115.065 130.891 114.933M115.867 112.655C114.904 111.817 114.742 111.059 115.062 110.403M115.867 112.655C115.484 111.972 115.207 111.219 115.062 110.403M125.905 107.67C127.487 107.791 129.106 108.079 130.37 108.659M125.905 107.67C127.381 107.067 128.903 106.661 130.009 106.466M130.37 108.659C130.523 108.113 130.738 107.6 131.022 107.135M130.891 114.933C130.881 114.909 130.871 114.885 130.862 114.86M130.009 106.466C130.358 106.68 130.696 106.903 131.022 107.135M130.009 106.466C130.281 106.419 130.528 106.384 130.742 106.362C131.042 106.331 131.349 106.308 131.661 106.294M131.022 107.135C131.206 106.833 131.418 106.551 131.661 106.294M131.661 106.294C132.838 106.241 134.089 106.308 135.312 106.534M131.661 106.294C131.964 105.973 132.313 105.691 132.712 105.455C133.375 105.064 134.253 104.717 135.217 104.486M135.312 106.534C135.819 106.627 136.322 106.748 136.813 106.898M135.312 106.534C135.554 108.956 136.269 111.641 137.892 113.549C139.295 115.2 140.875 114.792 141.737 113.137C141.96 112.709 142.17 112.205 142.343 111.659M135.312 106.534C135.265 106.067 135.236 105.61 135.222 105.169C135.215 104.949 135.212 104.72 135.217 104.486M136.813 106.898C138.274 107.346 139.632 108.057 140.698 109.1M136.813 106.898C136.587 107.835 137.21 108.858 139.092 109.115C139.692 109.197 140.225 109.187 140.698 109.1M136.813 106.898C136.931 106.406 137.283 105.938 137.809 105.617M140.698 109.1C141.084 109.479 141.432 109.901 141.733 110.37C141.994 110.778 142.196 111.211 142.343 111.659M140.698 109.1C141.564 108.941 142.224 108.524 142.714 107.945M142.343 111.659C143.26 114.462 142.001 117.845 139.453 119.257M142.343 111.659C142.706 110.508 142.905 109.167 142.714 107.945M139.453 119.257C139.184 119.406 138.9 119.533 138.603 119.635C138.492 119.674 138.381 119.708 138.27 119.739M139.453 119.257C138.209 119.06 136.89 119.115 135.861 119.265M139.453 119.257C139.875 119.324 140.288 119.42 140.679 119.551M138.27 119.739C138.256 119.743 138.242 119.747 138.228 119.751M138.27 119.739C139.007 119.874 139.725 120.008 140.409 120.139M138.27 119.739C137.513 119.6 136.736 119.461 135.957 119.323M138.228 119.751C137.72 119.889 137.225 119.947 136.748 119.936M138.228 119.751C137.626 119.601 136.908 119.525 136.195 119.478M138.228 119.751C138.575 119.837 138.883 119.947 139.129 120.09C139.414 120.255 139.244 120.697 138.971 121.133M136.748 119.936C136.09 119.921 135.465 119.772 134.881 119.517M136.748 119.936C136.593 119.776 136.407 119.624 136.195 119.478M136.748 119.936C136.941 120.134 137.087 120.343 137.176 120.563C137.728 121.931 132.841 121.619 132.253 121.017C131.757 120.51 133.669 119.862 134.881 119.517M134.881 119.517C134.797 119.48 134.715 119.442 134.633 119.401M134.881 119.517C134.997 119.483 135.107 119.453 135.207 119.426M134.633 119.401C134.382 119.275 134.138 119.129 133.902 118.966M134.633 119.401C134.211 119.382 133.833 119.36 133.535 119.324C131.219 119.039 128.729 118.877 126.452 118.236C126.101 118.137 125.836 118.055 125.649 117.989M134.633 119.401C134.817 119.409 135.01 119.417 135.207 119.426M133.902 118.966C133.547 118.718 133.211 118.429 132.897 118.107M133.902 118.966C134.513 119.07 135.132 119.177 135.75 119.286M133.902 118.966C130.379 118.363 127.139 117.866 125.867 117.777M132.897 118.107C130.592 117.481 128.026 117.218 126.954 117.357C126.491 117.417 126.133 117.566 125.867 117.777M132.897 118.107C134.012 118.409 135.067 118.797 135.861 119.265M135.217 104.486C135.846 104.336 136.511 104.235 137.176 104.203M137.176 104.203C138.886 104.122 140.594 104.501 141.68 105.679C141.713 105.714 141.744 105.75 141.775 105.786M137.176 104.203C137.308 104.742 137.516 105.227 137.809 105.617M137.176 104.203C136.878 102.986 136.967 101.497 137.336 100.217M141.775 105.786C141.837 105.859 141.896 105.934 141.952 106.011M141.775 105.786C142.436 104.652 142.316 102.779 141.47 101.639C140.603 100.469 139.229 99.7115 137.75 100.084C137.604 100.12 137.466 100.165 137.336 100.217M141.775 105.786C141.758 105.815 141.74 105.844 141.722 105.873M141.952 106.011C142.364 106.577 142.603 107.241 142.714 107.945M141.952 106.011C141.875 105.962 141.798 105.916 141.722 105.873M141.952 106.011C141.969 106.021 141.986 106.032 142.003 106.043C142.408 106.301 142.846 106.649 143.282 107.059M142.714 107.945C142.938 107.681 143.126 107.382 143.282 107.059M137.336 100.217C137.695 98.9752 138.318 97.9305 139.109 97.5233C142.922 95.5612 143.858 101.613 143.905 103.704C143.931 104.877 143.755 106.081 143.282 107.059M141.722 105.873C141.176 106.725 140.155 107.108 138.634 106.327C138.306 106.159 138.033 105.916 137.809 105.617M141.722 105.873C140.109 104.951 138.706 105.07 137.809 105.617M143.282 107.059C143.687 107.441 144.091 107.878 144.466 108.349M144.466 108.349C145.291 109.385 145.976 110.589 146.23 111.742M144.466 108.349C144.718 109.607 145.278 110.921 145.882 112.069M144.466 108.349C144.102 106.535 144.376 104.839 146.077 103.929C147.111 103.376 148.516 107.8 149.213 110.119M146.23 111.742C146.314 112.128 146.351 112.508 146.328 112.875M146.23 111.742C146.123 111.839 146.006 111.949 145.882 112.069M146.23 111.742C146.275 111.701 146.318 111.663 146.358 111.627C147.007 111.051 148.13 110.42 149.213 110.119M146.328 112.875C146.287 113.524 146.061 114.131 145.587 114.649C145.552 114.688 144.011 116.029 143.932 115.395C143.796 114.309 144.999 112.925 145.882 112.069M146.328 112.875C146.597 113.34 146.863 113.762 147.102 114.121C147.543 114.785 148.667 116.711 149.78 116.034C150.228 115.762 150.629 115.384 150.966 114.947M146.328 112.875C146.179 112.618 146.029 112.348 145.882 112.069M149.213 110.119C150.855 109.663 152.405 109.965 152.074 112.367C151.954 113.238 151.557 114.183 150.966 114.947M149.213 110.119C149.398 110.732 149.533 111.197 149.598 111.385C150.026 112.612 150.475 113.796 150.966 114.947M150.966 114.947C152.079 117.561 153.41 120.009 155.213 122.418C155.448 122.731 156.541 124.009 155.883 123.838C152.278 122.898 148.652 121.903 145.017 121.082M145.017 121.082C144.77 121.026 144.523 120.971 144.276 120.917C144.087 120.876 143.886 120.833 143.674 120.788M145.017 121.082C144.886 120.841 144.683 120.618 144.404 120.436M145.017 121.082C145.587 122.129 144.8 123.515 142.921 123.319C142.046 123.228 141.41 122.972 140.979 122.615M143.674 120.788C143.275 120.704 142.838 120.614 142.369 120.521M143.674 120.788C143.934 120.74 144.178 120.636 144.404 120.436M143.674 120.788C143.344 120.848 142.987 120.819 142.599 120.78M142.369 120.521C141.876 120.422 141.347 120.319 140.794 120.212M142.369 120.521C142.276 120.431 142.167 120.338 142.039 120.243C141.935 120.164 141.826 120.091 141.712 120.022M142.369 120.521C142.462 120.61 142.538 120.696 142.599 120.78M140.794 120.212C140.667 120.188 140.538 120.163 140.409 120.139M140.794 120.212C140.639 120.257 140.488 120.308 140.339 120.366M140.794 120.212C141.091 120.126 141.399 120.062 141.712 120.022M140.409 120.139C140.382 120.214 140.359 120.29 140.339 120.366M140.409 120.139C140.478 119.94 140.569 119.742 140.679 119.551M135.957 119.323C135.888 119.311 135.819 119.299 135.75 119.286M135.957 119.323C135.926 119.304 135.894 119.284 135.861 119.265M135.957 119.323C136.04 119.374 136.119 119.425 136.195 119.478M135.75 119.286C135.658 119.308 135.462 119.357 135.207 119.426M135.75 119.286C135.784 119.278 135.804 119.274 135.808 119.273C135.826 119.271 135.844 119.268 135.861 119.265M125.867 117.777C125.23 117.732 125.087 117.79 125.649 117.989M125.867 117.777C125.786 117.842 125.713 117.913 125.649 117.989M125.649 117.989C125.104 118.634 125.178 119.652 125.695 120.583C126.781 122.542 129.324 123.417 131.442 123.781C133.813 124.19 136.121 123.965 137.815 122.5M135.207 119.426C135.527 119.44 135.86 119.456 136.195 119.478M138.971 121.133C138.663 121.626 138.222 122.112 138.155 122.18C138.045 122.293 137.931 122.399 137.815 122.5M138.971 121.133C138.614 121.412 138.297 121.738 138.033 122.106C137.926 122.257 137.854 122.388 137.815 122.5M138.971 121.133C139.38 120.814 139.842 120.557 140.339 120.366M137.815 122.5C137.676 122.901 137.963 123.067 138.591 123.035C139 123.015 140.037 122.886 140.979 122.615M140.679 119.551C141.048 119.675 141.396 119.83 141.712 120.022M140.679 119.551C141.24 118.574 142.301 117.744 143.584 117.564C145.268 117.328 145.451 118.822 144.86 119.855C144.716 120.106 144.564 120.295 144.404 120.436M141.712 120.022C142.102 119.972 142.502 119.959 142.904 119.986C143.54 120.028 144.037 120.196 144.404 120.436M142.599 120.78C143.255 121.678 142.196 122.265 140.979 122.615M142.599 120.78C142.276 120.748 141.932 120.71 141.566 120.713M140.979 122.615C140.282 122.038 140.119 121.198 140.339 120.366M109.983 113.152C109.265 112.833 108.29 112.55 107.659 112.078C105.563 110.511 108.531 106.722 109.897 105.856M109.897 105.856C109.908 105.849 109.919 105.842 109.929 105.836C111.541 104.851 113.555 104.102 115.684 103.583M109.897 105.856C110.895 106.335 111.902 106.801 112.92 107.247C113.534 107.515 121.576 111.214 122.075 109.677C122.167 109.393 117.518 106.14 117.172 105.773C116.43 104.987 115.948 104.255 115.684 103.583M109.897 105.856C105.356 103.674 100.977 101.212 96.3552 99.1556M115.684 103.583C118.333 102.937 121.159 102.648 123.61 102.707C125.686 102.758 127.501 101.965 129.17 100.926M115.684 103.583C114.946 101.703 115.907 100.286 117.661 99.463M129.17 100.926C130.256 100.25 131.281 99.4696 132.276 98.7499C133.938 97.5471 136.046 96.9994 137.607 95.6928C139.53 94.0829 132.62 97.1712 130.11 97.8663C128.039 98.4395 125.94 98.8698 123.812 99.1402M129.17 100.926C131.036 101.39 132.867 101.676 134.754 101.014C135.898 100.613 141.824 95.7526 139.634 94.3108C138.975 93.8769 136.606 94.0267 135.872 94.0393C134.41 94.0644 132.991 94.9902 131.778 95.6037C124.47 99.3013 114.641 97.2141 106.342 97.0882C105.307 97.0725 101.241 96.7018 104.471 97.4774C107.615 98.2326 110.868 98.864 114.064 99.2214C115.27 99.3563 116.469 99.4359 117.661 99.463M129.17 100.926C128.503 100.761 127.832 100.573 127.153 100.397C126.215 100.155 124.99 99.5677 123.812 99.1402M123.812 99.1402C121.787 99.3976 119.736 99.5101 117.661 99.463M123.812 99.1402C123.019 98.8521 122.247 98.6364 121.599 98.6475C120.127 98.6729 118.743 98.9549 117.661 99.463M139.603 112.628C139.334 113.893 138.12 113.962 136.868 114.115C135.648 114.264 131.914 113.638 134.84 114.655C135.303 114.816 138.714 115.794 137.507 116.744C136.629 117.435 135.29 116.839 134.359 116.425L134.343 116.418M48.7544 77.6167C49.9838 78.279 51.2676 79.4606 52.7018 79.6534C54.9448 79.955 57.2129 80.0766 59.4616 80.3772C64.5945 81.0632 69.9571 81.8726 75.073 81.8338C77.5941 81.8147 80.1167 81.856 82.6363 81.7931C85.9562 81.7102 89.0192 80.6823 92.4373 81.1854C98.3148 82.0507 104.444 83.4984 110.295 82.8C110.626 82.7606 110.958 82.7188 111.291 82.6762M111.291 82.6762C112.766 82.4874 114.26 82.2808 115.735 82.1754C116.025 82.1547 118.361 82.2327 117.341 81.8883C112.57 80.2768 107.373 79.5167 102.452 78.7095C101.494 78.5524 100.395 78.3811 99.4098 78.2576C98.6102 78.1574 98.8586 78.295 99.4491 78.6156C102.373 80.2031 105.489 81.3165 108.704 82.1121C109.559 82.3238 110.423 82.5128 111.291 82.6762ZM111.291 82.6762C113.871 83.1616 116.493 83.4214 119.081 83.3834C120.164 83.3675 121.251 83.1364 122.341 82.9746M122.341 82.9746C123.334 82.8273 124.331 82.7375 125.332 82.9193C126.075 83.0542 123.886 82.4618 123.158 82.2525C121.569 81.796 120 81.3048 118.434 80.7717C118.179 80.6849 116.679 80.1069 118.061 80.8661C119.438 81.6229 120.874 82.3281 122.341 82.9746ZM122.341 82.9746C124.265 83.8223 126.241 84.5689 128.201 85.1976C129.613 85.6503 130.989 85.7415 132.373 86.3326C133.7 86.8991 134.889 87.4434 136.026 88.3382C137.168 89.2373 138.498 89.8575 139.64 90.7275C140.776 91.5935 141.712 92.8538 142.764 93.8205C144.847 95.734 146.489 97.7051 148.298 99.8285C149.864 101.666 151.133 104.062 152.341 106.115C153.461 108.019 153.662 110.055 154.536 112.04C156.641 116.817 160.906 120.825 162.558 125.745C162.718 126.224 163.268 128.589 162.834 128.893C162.319 129.254 159.041 128.294 158.244 128.053C156.547 127.539 155.072 127.083 153.365 126.323C150.028 124.839 145.091 126.836 141.609 126.863M128.157 79.7556C133.845 80.7037 136.647 83.6432 140.559 87.5547C143.269 90.2647 146.512 92.6506 148.282 96.1907C150.079 99.7858 152.915 103.128 154.255 106.881C155.258 109.691 157.307 112.081 158.287 115.022M85.3571 93.4515C85.0802 93.0188 84.745 91.7116 84.5962 92.158C83.97 94.0366 83.8581 92.2024 84.7104 91.4922C87.4696 89.1928 86.7688 96.0618 87.3735 96.8754C89.4349 99.649 93.9098 101.588 96.9986 102.886C103.119 105.459 108.887 107.076 114.176 111.332C115.873 112.699 117.312 114.485 118.227 116.468C118.826 117.766 118.835 118.89 120.187 119.34C120.563 119.466 121 119.659 121.471 119.872M121.471 119.872C121.687 119.969 121.909 120.071 122.136 120.172M121.471 119.872C119.718 119.818 120.956 119.984 122.136 120.172M121.471 119.872C121.632 119.877 121.818 119.883 122.032 119.892C124.942 120.011 127.926 120.184 130.82 119.74C132.324 119.509 133.485 118.621 134.948 118.275C136.376 117.938 138.895 116.714 140.407 117.153C144.788 118.425 149.385 119.218 153.856 120.311C156.218 120.888 157.796 123.433 159.429 125.066C160.633 126.27 157.333 122.379 156.366 120.976C153.556 116.897 151.173 112.59 148.396 108.479C146.095 105.072 143.823 102.034 141.092 98.9678C138.495 96.0524 137.057 92.5103 134.853 89.3617C133.691 87.7022 132.321 86.0714 130.69 84.7728M122.136 120.172C123.482 120.773 124.98 121.363 126.083 120.995C127.069 120.667 124.058 120.536 123.04 120.33C122.786 120.278 122.463 120.224 122.136 120.172ZM130.69 84.7728C129.641 83.9381 128.484 83.2406 127.206 82.7611C125.75 82.2153 124.446 82.2062 122.926 81.9431C121.632 81.7193 120.342 81.3626 119.049 81.0195M130.69 84.7728C131.26 82.2992 126.978 80.2088 125.437 79.6034C122.223 78.3408 112.113 79.6285 113.859 80.0296M130.69 84.7728C130.609 85.1228 130.431 85.4804 130.135 85.8426C128.329 88.0496 122.775 83.0676 121.309 82.2094C120.549 81.7648 119.801 81.3591 119.049 81.0195M119.049 81.0195C117.501 80.6092 115.95 80.2184 114.385 80.098C114.151 80.08 113.978 80.0568 113.859 80.0296M119.049 81.0195C117.387 80.269 115.708 79.8414 113.859 80.0296M113.859 80.0296C113.447 80.0715 113.027 80.1439 112.597 80.2502C109.737 80.9558 106.857 81.5198 104.151 82.685C102.494 83.3982 100.771 84.8043 99.053 85.2339" stroke="white" stroke-width="5" stroke-linecap="round"/>
</g>
<rect id="Rectangle 10" x="99.6224" y="76" width="31.5983" height="39.9481" rx="15.7991" transform="rotate(11 99.6224 76)" fill="#330058"/>
<g id="Vector_2">
<path d="M29.6873 69.2351C80.0001 99.5001 145.812 35.9053 166.728 130.207M30.6593 69.6675C84.1772 93.4784 82.3689 139.246 167.7 130.639M70.8756 77.3561C66.2658 75.9474 62.8066 76.6156 59.6164 72.592C57.7146 70.1934 55.893 67.4818 54.583 64.7111C53.0757 61.5233 53.254 57.9466 53.2001 54.505M79.4763 77.2593C76.5808 75.9459 72.9571 75.1823 71.0576 72.3815C69.1606 69.5843 68.626 65.7252 67.9956 62.4963C67.2966 58.916 66.8447 55.4821 67.1749 51.8528M91.9747 76.7048C88.8158 75.0306 87.1115 73.4806 86.4196 69.8476C85.3738 64.3561 85.4026 58.5312 85.3398 52.964" stroke="white" stroke-width="5" stroke-linecap="round"/>
<path d="M29.6873 69.2351C80.0001 99.5001 145.812 35.9053 166.728 130.207M30.6593 69.6675C84.1772 93.4784 82.3689 139.246 167.7 130.639M70.8756 77.3561C66.2658 75.9474 62.8066 76.6156 59.6164 72.592C57.7146 70.1934 55.893 67.4818 54.583 64.7111C53.0757 61.5233 53.254 57.9466 53.2001 54.505M79.4763 77.2593C76.5808 75.9459 72.9571 75.1823 71.0576 72.3815C69.1606 69.5843 68.626 65.7252 67.9956 62.4963C67.2966 58.916 66.8447 55.4821 67.1749 51.8528M91.9747 76.7048C88.8158 75.0306 87.1115 73.4806 86.4196 69.8476C85.3738 64.3561 85.4026 58.5312 85.3398 52.964" stroke="black" stroke-width="5" stroke-linecap="round"/>
</g>
</g>
</svg>
