<svg width="366" height="314" viewBox="0 0 366 314" fill="none" xmlns="http://www.w3.org/2000/svg">
<path d="M158.921 244.767C148.961 287.205 185.781 292.355 198.14 292.903C200.752 293.019 203.339 293.159 205.947 293.34C215.196 293.98 237.543 293.569 235.297 274.312C232.472 250.094 210.982 261.436 210.982 261.436" stroke="#1E0A04" stroke-width="40" stroke-linecap="round"/>
<path d="M148.604 243.815C141.183 286.77 105.278 277.118 93.6884 272.791C91.239 271.877 88.8031 270.995 86.3317 270.142C77.5687 267.116 57.1603 258.003 66.7551 241.156C78.8213 219.968 94.1685 238.809 94.1685 238.809" stroke="#1E0A04" stroke-width="40" stroke-linecap="round"/>
<rect x="150.136" y="121" width="50" height="144.756" rx="25" transform="rotate(10 150.136 121)" fill="#1E0A04"/>
<ellipse cx="178.996" cy="120.701" rx="173.971" ry="44.1618" transform="rotate(10 178.996 120.701)" fill="#270E07"/>
<rect x="15.443" y="47" width="347.94" height="42.5499" transform="rotate(10 15.443 47)" fill="#270E07"/>
<ellipse cx="187" cy="74.0001" rx="173.971" ry="44.1618" transform="rotate(10 187 74.0001)" fill="#3F170B"/>
<ellipse cx="224.212" cy="69.109" rx="83" ry="20" transform="rotate(10 224.212 69.109)" fill="#2F1209"/>
</svg>
