<svg width="104" height="104" viewBox="0 0 104 104" fill="none" xmlns="http://www.w3.org/2000/svg">
<g id="Back Button">
<path id="Vector" d="M33.5278 70.4722V33.5278M102 52C102 79.6142 79.6142 102 52 102C24.3858 102 2 79.6142 2 52C2 24.3858 24.3858 2 52 2C79.6142 2 102 24.3858 102 52ZM93.6667 52C93.6667 75.0119 75.0119 93.6667 52 93.6667C28.9881 93.6667 10.3333 75.0119 10.3333 52C10.3333 28.9881 28.9881 10.3333 52 10.3333C75.0119 10.3333 93.6667 28.9881 93.6667 52ZM70.4722 73.1111L44.0833 52L70.4722 30.8889V73.1111Z" stroke="#1E1E1E" stroke-width="4" stroke-linecap="round" stroke-linejoin="round"/>
</g>
</svg>
