<svg width="151" height="125" viewBox="0 0 151 125" fill="none" xmlns="http://www.w3.org/2000/svg">
<g id="Cancer">
<path id="Ellipse 11" d="M52.5 34.236C52.5 46.7884 41.9077 57.236 28.5 57.236C15.0923 57.236 4.5 46.7884 4.5 34.236C4.5 21.6836 15.0923 11.236 28.5 11.236C41.9077 11.236 52.5 21.6836 52.5 34.236Z" stroke="black" stroke-width="9"/>
<path id="Vector 13" d="M21.8355 11.7317C79.1938 -2.7879 122.294 3.34299 140.319 44.0631" stroke="black" stroke-width="9" stroke-linecap="round"/>
<path id="Ellipse 12" d="M98.5 89.736C98.5 76.832 109.17 66.236 122.5 66.236C135.83 66.236 146.5 76.832 146.5 89.736C146.5 102.64 135.83 113.236 122.5 113.236C109.17 113.236 98.5 102.64 98.5 89.736Z" stroke="black" stroke-width="9"/>
<path id="Vector 14" d="M129.034 113.005C71.6109 127.266 28.5392 120.94 10.6975 80.1394" stroke="black" stroke-width="9" stroke-linecap="round"/>
</g>
</svg>
